<mxfile host="app.diagrams.net" modified="2023-06-21T11:55:30.166Z" agent="Mozilla/5.0 (Macintosh; Intel Mac OS X 10.15; rv:109.0) Gecko/20100101 Firefox/111.0" etag="GRIegg6Q6zEGvImZOwSs" version="21.3.2" pages="2">
  <diagram name="mit welcome- und registrationcontroller" id="ffsZXkNofe1MwQi4akU4">
    <mxGraphModel dx="1271" dy="729" grid="1" gridSize="10" guides="1" tooltips="1" connect="1" arrows="1" fold="1" page="1" pageScale="1" pageWidth="1654" pageHeight="1169" math="0" shadow="0">
      <root>
        <mxCell id="0" />
        <mxCell id="1" parent="0" />
        <mxCell id="R9NU2i1qw7t-028HuFdZ-18" value="DatabaseConnection" style="swimlane;fontStyle=1;align=center;verticalAlign=top;childLayout=stackLayout;horizontal=1;startSize=26;horizontalStack=0;resizeParent=1;resizeParentMax=0;resizeLast=0;collapsible=1;marginBottom=0;whiteSpace=wrap;html=1;" vertex="1" parent="1">
          <mxGeometry x="640" y="40" width="160" height="110" as="geometry">
            <mxRectangle x="80" y="540" width="160" height="30" as="alternateBounds" />
          </mxGeometry>
        </mxCell>
        <mxCell id="R9NU2i1qw7t-028HuFdZ-19" value="Connection: connection" style="text;strokeColor=none;fillColor=none;align=left;verticalAlign=top;spacingLeft=4;spacingRight=4;overflow=hidden;rotatable=0;points=[[0,0.5],[1,0.5]];portConstraint=eastwest;whiteSpace=wrap;html=1;" vertex="1" parent="R9NU2i1qw7t-028HuFdZ-18">
          <mxGeometry y="26" width="160" height="26" as="geometry" />
        </mxCell>
        <mxCell id="R9NU2i1qw7t-028HuFdZ-20" value="" style="line;strokeWidth=1;fillColor=none;align=left;verticalAlign=middle;spacingTop=-1;spacingLeft=3;spacingRight=3;rotatable=0;labelPosition=right;points=[];portConstraint=eastwest;strokeColor=inherit;" vertex="1" parent="R9NU2i1qw7t-028HuFdZ-18">
          <mxGeometry y="52" width="160" height="8" as="geometry" />
        </mxCell>
        <mxCell id="R9NU2i1qw7t-028HuFdZ-21" value="&lt;div&gt;+ Connection &lt;br&gt;+ getConnection()&lt;/div&gt;&lt;div&gt;+ void close()&lt;br&gt;&lt;/div&gt;" style="text;strokeColor=none;fillColor=none;align=left;verticalAlign=top;spacingLeft=4;spacingRight=4;overflow=hidden;rotatable=0;points=[[0,0.5],[1,0.5]];portConstraint=eastwest;whiteSpace=wrap;html=1;" vertex="1" parent="R9NU2i1qw7t-028HuFdZ-18">
          <mxGeometry y="60" width="160" height="50" as="geometry" />
        </mxCell>
        <mxCell id="R9NU2i1qw7t-028HuFdZ-22" value="GameController" style="swimlane;fontStyle=1;align=center;verticalAlign=top;childLayout=stackLayout;horizontal=1;startSize=26;horizontalStack=0;resizeParent=1;resizeParentMax=0;resizeLast=0;collapsible=1;marginBottom=0;whiteSpace=wrap;html=1;" vertex="1" parent="1">
          <mxGeometry x="40" y="950" width="240" height="650" as="geometry">
            <mxRectangle x="40" y="950" width="160" height="30" as="alternateBounds" />
          </mxGeometry>
        </mxCell>
        <mxCell id="R9NU2i1qw7t-028HuFdZ-23" value="model: GameModel;&lt;br&gt;view: GameModel;&lt;br&gt;spaceship: ImageView;&lt;br&gt;velocityX: double;&lt;br&gt;&lt;div&gt;velocityY: double;&lt;/div&gt;&lt;div&gt;isUpPressed: boolean;&lt;/div&gt;isDownPressed: boolean;&lt;br&gt;isLeftPressed: boolean;&lt;br&gt;isRightPressed: boolean;&lt;br&gt;bullets:List&amp;lt;ImageView&amp;gt;&lt;br&gt;&lt;div&gt;enemies: List &amp;lt;Enemy&amp;gt;&lt;/div&gt;&lt;div&gt;specialEnemies: List&amp;lt;SpecialEnemy&amp;gt; &lt;/div&gt;" style="text;strokeColor=none;fillColor=none;align=left;verticalAlign=top;spacingLeft=4;spacingRight=4;overflow=hidden;rotatable=0;points=[[0,0.5],[1,0.5]];portConstraint=eastwest;whiteSpace=wrap;html=1;" vertex="1" parent="R9NU2i1qw7t-028HuFdZ-22">
          <mxGeometry y="26" width="240" height="194" as="geometry" />
        </mxCell>
        <mxCell id="R9NU2i1qw7t-028HuFdZ-24" value="" style="line;strokeWidth=1;fillColor=none;align=left;verticalAlign=middle;spacingTop=-1;spacingLeft=3;spacingRight=3;rotatable=0;labelPosition=right;points=[];portConstraint=eastwest;strokeColor=inherit;" vertex="1" parent="R9NU2i1qw7t-028HuFdZ-22">
          <mxGeometry y="220" width="240" height="8" as="geometry" />
        </mxCell>
        <mxCell id="R9NU2i1qw7t-028HuFdZ-25" value="&lt;div&gt;+ handle (long: now)&lt;/div&gt;&lt;div&gt;+ shoot()&lt;/div&gt;&lt;div&gt;+ checkCollision()&lt;/div&gt;&lt;div&gt;+ checkBulletCollision(&lt;/div&gt;&lt;div&gt;bullets: List&amp;lt;ImageView&amp;gt; &lt;br&gt;&lt;/div&gt;&lt;div&gt;enemies: List&amp;lt;Enemy&amp;gt; &lt;br&gt;&lt;/div&gt;&lt;div&gt;specialEnemies: List&amp;lt;SpecialEnemy&amp;gt; &lt;br&gt;bulletsToRemove: List&amp;lt;ImageView&amp;gt; enemiesToRemove: List&amp;lt;Enemy&amp;gt;&lt;br&gt;specialEnemiesToRemove: List&amp;lt;SpecialEnemy&amp;gt; )&lt;/div&gt;&lt;div&gt;+ removeBulletsAndEnemies(&lt;br&gt;bulletsToRemove: List&amp;lt;ImageView&amp;gt;&lt;/div&gt;&lt;div&gt;enemiesToRemove: List&amp;lt;Enemy&amp;gt; &lt;br&gt;specialEnemiesToRemove: List&amp;lt;SpecialEnemy&amp;gt;)&lt;/div&gt;&lt;div&gt;+ calculateScoreIncrease(&lt;/div&gt;&lt;div&gt;enemiesToRemove: List&amp;lt;Enemy&amp;gt;  specialEnemiesToRemove: List&amp;lt;SpecialEnemy&amp;gt;)&lt;/div&gt;&lt;div&gt;+ updateScore(scoreIncrease: int)&lt;/div&gt;&lt;div&gt;+ checkPlayerHit()&lt;/div&gt;&lt;div&gt;+ isPlayerHit()&lt;/div&gt;&lt;div&gt;+ getBoundsInParent(imageView: ImageView)&lt;/div&gt;&lt;div&gt;+ addBullet(bullet: ImageView)&lt;/div&gt;&lt;div&gt;+ addBullet(bullet1: ImageView, bullet2: ImageView )&lt;br&gt;&lt;/div&gt;" style="text;strokeColor=none;fillColor=none;align=left;verticalAlign=top;spacingLeft=4;spacingRight=4;overflow=hidden;rotatable=0;points=[[0,0.5],[1,0.5]];portConstraint=eastwest;whiteSpace=wrap;html=1;" vertex="1" parent="R9NU2i1qw7t-028HuFdZ-22">
          <mxGeometry y="228" width="240" height="422" as="geometry" />
        </mxCell>
        <mxCell id="R9NU2i1qw7t-028HuFdZ-26" value="HighscoreController" style="swimlane;fontStyle=1;align=center;verticalAlign=top;childLayout=stackLayout;horizontal=1;startSize=26;horizontalStack=0;resizeParent=1;resizeParentMax=0;resizeLast=0;collapsible=1;marginBottom=0;whiteSpace=wrap;html=1;" vertex="1" parent="1">
          <mxGeometry x="40" y="500" width="240" height="150" as="geometry">
            <mxRectangle x="570" y="620" width="160" height="30" as="alternateBounds" />
          </mxGeometry>
        </mxCell>
        <mxCell id="R9NU2i1qw7t-028HuFdZ-27" value="dbConnection: DatabaseConnection" style="text;strokeColor=none;fillColor=none;align=left;verticalAlign=top;spacingLeft=4;spacingRight=4;overflow=hidden;rotatable=0;points=[[0,0.5],[1,0.5]];portConstraint=eastwest;whiteSpace=wrap;html=1;" vertex="1" parent="R9NU2i1qw7t-028HuFdZ-26">
          <mxGeometry y="26" width="240" height="44" as="geometry" />
        </mxCell>
        <mxCell id="R9NU2i1qw7t-028HuFdZ-28" value="" style="line;strokeWidth=1;fillColor=none;align=left;verticalAlign=middle;spacingTop=-1;spacingLeft=3;spacingRight=3;rotatable=0;labelPosition=right;points=[];portConstraint=eastwest;strokeColor=inherit;" vertex="1" parent="R9NU2i1qw7t-028HuFdZ-26">
          <mxGeometry y="70" width="240" height="8" as="geometry" />
        </mxCell>
        <mxCell id="R9NU2i1qw7t-028HuFdZ-29" value="+ getHighscore(playerName: String)&lt;div&gt;+ updateHighscore(playerName: String, newHighscore: int)&lt;/div&gt;&lt;div&gt;+ getAllHighscores()&lt;br&gt;&lt;/div&gt;" style="text;strokeColor=none;fillColor=none;align=left;verticalAlign=top;spacingLeft=4;spacingRight=4;overflow=hidden;rotatable=0;points=[[0,0.5],[1,0.5]];portConstraint=eastwest;whiteSpace=wrap;html=1;" vertex="1" parent="R9NU2i1qw7t-028HuFdZ-26">
          <mxGeometry y="78" width="240" height="72" as="geometry" />
        </mxCell>
        <mxCell id="R9NU2i1qw7t-028HuFdZ-30" value="HighscoreScene" style="swimlane;fontStyle=1;align=center;verticalAlign=top;childLayout=stackLayout;horizontal=1;startSize=26;horizontalStack=0;resizeParent=1;resizeParentMax=0;resizeLast=0;collapsible=1;marginBottom=0;whiteSpace=wrap;html=1;" vertex="1" parent="1">
          <mxGeometry x="40" y="735" width="170" height="160" as="geometry">
            <mxRectangle x="809" y="620" width="130" height="30" as="alternateBounds" />
          </mxGeometry>
        </mxCell>
        <mxCell id="R9NU2i1qw7t-028HuFdZ-31" value="&lt;div&gt;BackButton: Button&lt;/div&gt;&lt;div&gt;HighScores: GridPane&lt;br&gt;&lt;/div&gt;&lt;div&gt;highscoreController: HighscoreController&lt;br&gt;&lt;/div&gt;&lt;div&gt;&lt;br&gt;&lt;/div&gt;" style="text;strokeColor=none;fillColor=none;align=left;verticalAlign=top;spacingLeft=4;spacingRight=4;overflow=hidden;rotatable=0;points=[[0,0.5],[1,0.5]];portConstraint=eastwest;whiteSpace=wrap;html=1;" vertex="1" parent="R9NU2i1qw7t-028HuFdZ-30">
          <mxGeometry y="26" width="170" height="64" as="geometry" />
        </mxCell>
        <mxCell id="R9NU2i1qw7t-028HuFdZ-32" value="" style="line;strokeWidth=1;fillColor=none;align=left;verticalAlign=middle;spacingTop=-1;spacingLeft=3;spacingRight=3;rotatable=0;labelPosition=right;points=[];portConstraint=eastwest;strokeColor=inherit;" vertex="1" parent="R9NU2i1qw7t-028HuFdZ-30">
          <mxGeometry y="90" width="170" height="8" as="geometry" />
        </mxCell>
        <mxCell id="R9NU2i1qw7t-028HuFdZ-33" value="+ initialize()&lt;div&gt;+ handleBackButton(event: ActionEvent)&lt;br&gt;&lt;/div&gt;" style="text;strokeColor=none;fillColor=none;align=left;verticalAlign=top;spacingLeft=4;spacingRight=4;overflow=hidden;rotatable=0;points=[[0,0.5],[1,0.5]];portConstraint=eastwest;whiteSpace=wrap;html=1;" vertex="1" parent="R9NU2i1qw7t-028HuFdZ-30">
          <mxGeometry y="98" width="170" height="62" as="geometry" />
        </mxCell>
        <mxCell id="R9NU2i1qw7t-028HuFdZ-34" value="LobbyController" style="swimlane;fontStyle=1;align=center;verticalAlign=top;childLayout=stackLayout;horizontal=1;startSize=26;horizontalStack=0;resizeParent=1;resizeParentMax=0;resizeLast=0;collapsible=1;marginBottom=0;whiteSpace=wrap;html=1;" vertex="1" parent="1">
          <mxGeometry x="1400" y="490" width="240" height="450" as="geometry">
            <mxRectangle x="310" y="520" width="130" height="30" as="alternateBounds" />
          </mxGeometry>
        </mxCell>
        <mxCell id="R9NU2i1qw7t-028HuFdZ-35" value="loggedInUserName: String&lt;br&gt;dbID: String&lt;br&gt;&lt;div&gt;dbConnection: DatabaseConnection&lt;/div&gt;&lt;div&gt;cP: ColorPicker&lt;/div&gt;&lt;div&gt;anchorPane: AnchorPane&amp;nbsp; SinglePlayerButton: Button&lt;br&gt;MultiplayerButton: Button&lt;br&gt;SettingsButton: Buttons&lt;br&gt;Highscores: Buttons&lt;br&gt;CloseButton: Button&lt;br&gt;ToggleButton: Toggle&lt;br&gt;UserName: Label &lt;br&gt;&lt;/div&gt;&lt;div&gt;Avatar: ImageView SaveSettingsButton: Button&lt;br&gt;&lt;/div&gt;" style="text;strokeColor=none;fillColor=none;align=left;verticalAlign=top;spacingLeft=4;spacingRight=4;overflow=hidden;rotatable=0;points=[[0,0.5],[1,0.5]];portConstraint=eastwest;whiteSpace=wrap;html=1;" vertex="1" parent="R9NU2i1qw7t-028HuFdZ-34">
          <mxGeometry y="26" width="240" height="234" as="geometry" />
        </mxCell>
        <mxCell id="R9NU2i1qw7t-028HuFdZ-36" value="" style="line;strokeWidth=1;fillColor=none;align=left;verticalAlign=middle;spacingTop=-1;spacingLeft=3;spacingRight=3;rotatable=0;labelPosition=right;points=[];portConstraint=eastwest;strokeColor=inherit;" vertex="1" parent="R9NU2i1qw7t-028HuFdZ-34">
          <mxGeometry y="260" width="240" height="8" as="geometry" />
        </mxCell>
        <mxCell id="R9NU2i1qw7t-028HuFdZ-37" value="&lt;div&gt;+ setLoggedInUserName(userName: String)&lt;br&gt;&lt;/div&gt;&lt;div&gt;+ close()&lt;/div&gt;&lt;div&gt;+ handleCloseButton(event: ActionEvent)&lt;/div&gt;&lt;div&gt;+ handleSinglePlayerButton(event: ActionEvent)&lt;/div&gt;&lt;div&gt;+ handleMultiPlayerButton(event: ActionEvent)&lt;/div&gt;&lt;div&gt;+ handleHighscoreButton(event: ActionEvent)&lt;/div&gt;&lt;div&gt;+ handleSettingsButton(event: ActionEvent)&lt;/div&gt;" style="text;strokeColor=none;fillColor=none;align=left;verticalAlign=top;spacingLeft=4;spacingRight=4;overflow=hidden;rotatable=0;points=[[0,0.5],[1,0.5]];portConstraint=eastwest;whiteSpace=wrap;html=1;" vertex="1" parent="R9NU2i1qw7t-028HuFdZ-34">
          <mxGeometry y="268" width="240" height="182" as="geometry" />
        </mxCell>
        <mxCell id="R9NU2i1qw7t-028HuFdZ-38" value="LoginController" style="swimlane;fontStyle=1;align=center;verticalAlign=top;childLayout=stackLayout;horizontal=1;startSize=26;horizontalStack=0;resizeParent=1;resizeParentMax=0;resizeLast=0;collapsible=1;marginBottom=0;whiteSpace=wrap;html=1;" vertex="1" parent="1">
          <mxGeometry x="1400" y="30" width="240" height="440" as="geometry">
            <mxRectangle x="40" y="710" width="130" height="30" as="alternateBounds" />
          </mxGeometry>
        </mxCell>
        <mxCell id="R9NU2i1qw7t-028HuFdZ-39" value="url: String&lt;br&gt;user: String&lt;br&gt;password: String&lt;br&gt;con: Connection&lt;br&gt;stmt: Statement&lt;br&gt;rs: ResultSet &lt;br&gt;loggedInUserName: String&lt;br&gt;startupSound: Sound&lt;br&gt;LoginButton: Button&lt;br&gt;resetButton: Button&lt;br&gt;userIDField: TextField&lt;br&gt;userPasswordField: PasswordField&lt;br&gt;createUserAccount: Button&lt;br&gt;abbrechenCreateUserAccount: Button&lt;br&gt;RegisterUserNameField: TextField&lt;br&gt;RegisterUserPasswordField: PasswordField&lt;br&gt;RegisterButton: Button&lt;br&gt;devLogin: Button" style="text;strokeColor=none;fillColor=none;align=left;verticalAlign=top;spacingLeft=4;spacingRight=4;overflow=hidden;rotatable=0;points=[[0,0.5],[1,0.5]];portConstraint=eastwest;whiteSpace=wrap;html=1;" vertex="1" parent="R9NU2i1qw7t-028HuFdZ-38">
          <mxGeometry y="26" width="240" height="294" as="geometry" />
        </mxCell>
        <mxCell id="R9NU2i1qw7t-028HuFdZ-40" value="" style="line;strokeWidth=1;fillColor=none;align=left;verticalAlign=middle;spacingTop=-1;spacingLeft=3;spacingRight=3;rotatable=0;labelPosition=right;points=[];portConstraint=eastwest;strokeColor=inherit;" vertex="1" parent="R9NU2i1qw7t-028HuFdZ-38">
          <mxGeometry y="320" width="240" height="8" as="geometry" />
        </mxCell>
        <mxCell id="R9NU2i1qw7t-028HuFdZ-41" value="&lt;div&gt;+ userLogin(e: ActionEvent)&lt;/div&gt;&lt;div&gt;+ reset(e: ActionEvent)&lt;/div&gt;&lt;div&gt;+ switchTocreateUser(event: ActionEvent)&lt;/div&gt;&lt;div&gt;+ switchToLoginScreen(event: ActionEvent)&lt;/div&gt;&lt;div&gt;+ createNewUser(event: ActionEvent)&lt;/div&gt;&lt;div&gt;+ devLogin(event: ActionEvent)&lt;/div&gt;" style="text;strokeColor=none;fillColor=none;align=left;verticalAlign=top;spacingLeft=4;spacingRight=4;overflow=hidden;rotatable=0;points=[[0,0.5],[1,0.5]];portConstraint=eastwest;whiteSpace=wrap;html=1;" vertex="1" parent="R9NU2i1qw7t-028HuFdZ-38">
          <mxGeometry y="328" width="240" height="112" as="geometry" />
        </mxCell>
        <mxCell id="R9NU2i1qw7t-028HuFdZ-43" value="SettingsController" style="swimlane;fontStyle=1;align=center;verticalAlign=top;childLayout=stackLayout;horizontal=1;startSize=26;horizontalStack=0;resizeParent=1;resizeParentMax=0;resizeLast=0;collapsible=1;marginBottom=0;whiteSpace=wrap;html=1;" vertex="1" parent="1">
          <mxGeometry x="800" y="400" width="240" height="450" as="geometry">
            <mxRectangle x="90" y="1020" width="150" height="30" as="alternateBounds" />
          </mxGeometry>
        </mxCell>
        <mxCell id="R9NU2i1qw7t-028HuFdZ-44" value="loggedInUserName: String&lt;br&gt;dbID: String&lt;br&gt;savedFontName: String&lt;br&gt;savedFontSize: String&lt;br&gt;avatarImage: File&lt;br&gt;savedAvatar: byte[] &lt;br&gt;imageBytes: byte[] &lt;br&gt;connection: Connection&lt;br&gt;somethingChanged: boolean&lt;br&gt;savedBackgroundColor: Color&lt;br&gt;BackButton: Button&lt;br&gt;SaveSettings: Button&lt;br&gt;AnchorPane: AnchorPane&lt;br&gt;FontStyle: ComboBox&amp;lt;String&amp;gt; &lt;br&gt;FontSize: ComboBox&amp;lt;String&amp;gt; &lt;br&gt;WindowSize: ComboBox&amp;lt;String&amp;gt; &lt;br&gt;cP: ColorPicker&lt;br&gt;ChangeAvatarButton: Button" style="text;strokeColor=none;fillColor=none;align=left;verticalAlign=top;spacingLeft=4;spacingRight=4;overflow=hidden;rotatable=0;points=[[0,0.5],[1,0.5]];portConstraint=eastwest;whiteSpace=wrap;html=1;" vertex="1" parent="R9NU2i1qw7t-028HuFdZ-43">
          <mxGeometry y="26" width="240" height="274" as="geometry" />
        </mxCell>
        <mxCell id="R9NU2i1qw7t-028HuFdZ-45" value="" style="line;strokeWidth=1;fillColor=none;align=left;verticalAlign=middle;spacingTop=-1;spacingLeft=3;spacingRight=3;rotatable=0;labelPosition=right;points=[];portConstraint=eastwest;strokeColor=inherit;" vertex="1" parent="R9NU2i1qw7t-028HuFdZ-43">
          <mxGeometry y="300" width="240" height="8" as="geometry" />
        </mxCell>
        <mxCell id="R9NU2i1qw7t-028HuFdZ-46" value="&lt;div&gt;+ SettingsController()&lt;/div&gt;&lt;div&gt;+ initialize()&lt;/div&gt;&lt;div&gt;+ setUserName(userName: String)&lt;/div&gt;&lt;div&gt;+ colorChange(e: ActionEvent)&lt;/div&gt;&lt;div&gt;+ saveSettings(event: ActionEvent)&lt;/div&gt;&lt;div&gt;+ handleBackButton(event: ActionEvent)&lt;/div&gt;&lt;div&gt;+ FontChange(event: ActionEvent)&lt;/div&gt;&lt;div&gt;+ FontSizeChange(event: ActionEvent)&lt;/div&gt;&lt;div&gt;+ AvatarChange(event: ActionEvent)&lt;/div&gt;&lt;div&gt;&lt;br&gt;&lt;/div&gt;" style="text;strokeColor=none;fillColor=none;align=left;verticalAlign=top;spacingLeft=4;spacingRight=4;overflow=hidden;rotatable=0;points=[[0,0.5],[1,0.5]];portConstraint=eastwest;whiteSpace=wrap;html=1;" vertex="1" parent="R9NU2i1qw7t-028HuFdZ-43">
          <mxGeometry y="308" width="240" height="142" as="geometry" />
        </mxCell>
        <mxCell id="R9NU2i1qw7t-028HuFdZ-56" value="WelcomeController" style="swimlane;fontStyle=1;align=center;verticalAlign=top;childLayout=stackLayout;horizontal=1;startSize=26;horizontalStack=0;resizeParent=1;resizeParentMax=0;resizeLast=0;collapsible=1;marginBottom=0;whiteSpace=wrap;html=1;" vertex="1" parent="1">
          <mxGeometry x="40" y="40" width="240" height="180" as="geometry">
            <mxRectangle x="80" y="10" width="150" height="30" as="alternateBounds" />
          </mxGeometry>
        </mxCell>
        <mxCell id="R9NU2i1qw7t-028HuFdZ-57" value="nameField: TextField&lt;br&gt;passwordField: PasswordField&lt;br&gt;imageView: ImageView&lt;br&gt;&lt;div&gt;registerButton: Button&lt;/div&gt;&lt;div&gt;picture: Image&lt;br&gt;&lt;/div&gt;" style="text;strokeColor=none;fillColor=none;align=left;verticalAlign=top;spacingLeft=4;spacingRight=4;overflow=hidden;rotatable=0;points=[[0,0.5],[1,0.5]];portConstraint=eastwest;whiteSpace=wrap;html=1;" vertex="1" parent="R9NU2i1qw7t-028HuFdZ-56">
          <mxGeometry y="26" width="240" height="84" as="geometry" />
        </mxCell>
        <mxCell id="R9NU2i1qw7t-028HuFdZ-58" value="" style="line;strokeWidth=1;fillColor=none;align=left;verticalAlign=middle;spacingTop=-1;spacingLeft=3;spacingRight=3;rotatable=0;labelPosition=right;points=[];portConstraint=eastwest;strokeColor=inherit;" vertex="1" parent="R9NU2i1qw7t-028HuFdZ-56">
          <mxGeometry y="110" width="240" height="8" as="geometry" />
        </mxCell>
        <mxCell id="R9NU2i1qw7t-028HuFdZ-59" value="+ handleRegisterButton(event: ActionEvent)&lt;div&gt;+ handleCancelButtonAction(event: ActionEvent)&lt;/div&gt;" style="text;strokeColor=none;fillColor=none;align=left;verticalAlign=top;spacingLeft=4;spacingRight=4;overflow=hidden;rotatable=0;points=[[0,0.5],[1,0.5]];portConstraint=eastwest;whiteSpace=wrap;html=1;" vertex="1" parent="R9NU2i1qw7t-028HuFdZ-56">
          <mxGeometry y="118" width="240" height="62" as="geometry" />
        </mxCell>
        <mxCell id="R9NU2i1qw7t-028HuFdZ-64" value="GameModel" style="swimlane;fontStyle=1;align=center;verticalAlign=top;childLayout=stackLayout;horizontal=1;startSize=26;horizontalStack=0;resizeParent=1;resizeParentMax=0;resizeLast=0;collapsible=1;marginBottom=0;whiteSpace=wrap;html=1;" vertex="1" parent="1">
          <mxGeometry x="40" y="1690" width="240" height="180" as="geometry">
            <mxRectangle x="40" y="1640" width="150" height="30" as="alternateBounds" />
          </mxGeometry>
        </mxCell>
        <mxCell id="R9NU2i1qw7t-028HuFdZ-65" value="&lt;div&gt;score: IntegerProperty &lt;br&gt;&lt;/div&gt;&lt;div&gt;hitSound: Media&lt;br&gt;shootSound: Media&lt;br&gt;&lt;/div&gt;" style="text;strokeColor=none;fillColor=none;align=left;verticalAlign=top;spacingLeft=4;spacingRight=4;overflow=hidden;rotatable=0;points=[[0,0.5],[1,0.5]];portConstraint=eastwest;whiteSpace=wrap;html=1;" vertex="1" parent="R9NU2i1qw7t-028HuFdZ-64">
          <mxGeometry y="26" width="240" height="54" as="geometry" />
        </mxCell>
        <mxCell id="R9NU2i1qw7t-028HuFdZ-66" value="" style="line;strokeWidth=1;fillColor=none;align=left;verticalAlign=middle;spacingTop=-1;spacingLeft=3;spacingRight=3;rotatable=0;labelPosition=right;points=[];portConstraint=eastwest;strokeColor=inherit;" vertex="1" parent="R9NU2i1qw7t-028HuFdZ-64">
          <mxGeometry y="80" width="240" height="8" as="geometry" />
        </mxCell>
        <mxCell id="R9NU2i1qw7t-028HuFdZ-67" value="&lt;div&gt;+ getshootSound()&lt;/div&gt;&lt;div&gt;+ getHitSound()&lt;/div&gt;&lt;div&gt;+ getScore()&lt;/div&gt;&lt;div&gt;+ setScore(score: int)&lt;/div&gt;&lt;div&gt;+ scoreProperty()&lt;br&gt;&lt;/div&gt;" style="text;strokeColor=none;fillColor=none;align=left;verticalAlign=top;spacingLeft=4;spacingRight=4;overflow=hidden;rotatable=0;points=[[0,0.5],[1,0.5]];portConstraint=eastwest;whiteSpace=wrap;html=1;" vertex="1" parent="R9NU2i1qw7t-028HuFdZ-64">
          <mxGeometry y="88" width="240" height="92" as="geometry" />
        </mxCell>
        <mxCell id="R9NU2i1qw7t-028HuFdZ-68" value="HealthBar" style="swimlane;fontStyle=1;align=center;verticalAlign=top;childLayout=stackLayout;horizontal=1;startSize=26;horizontalStack=0;resizeParent=1;resizeParentMax=0;resizeLast=0;collapsible=1;marginBottom=0;whiteSpace=wrap;html=1;" vertex="1" parent="1">
          <mxGeometry x="1030" y="1130" width="240" height="130" as="geometry">
            <mxRectangle x="1000" y="1130" width="150" height="30" as="alternateBounds" />
          </mxGeometry>
        </mxCell>
        <mxCell id="R9NU2i1qw7t-028HuFdZ-69" value="heartsPane: Pane&lt;br&gt;player: Player" style="text;strokeColor=none;fillColor=none;align=left;verticalAlign=top;spacingLeft=4;spacingRight=4;overflow=hidden;rotatable=0;points=[[0,0.5],[1,0.5]];portConstraint=eastwest;whiteSpace=wrap;html=1;" vertex="1" parent="R9NU2i1qw7t-028HuFdZ-68">
          <mxGeometry y="26" width="240" height="54" as="geometry" />
        </mxCell>
        <mxCell id="R9NU2i1qw7t-028HuFdZ-70" value="" style="line;strokeWidth=1;fillColor=none;align=left;verticalAlign=middle;spacingTop=-1;spacingLeft=3;spacingRight=3;rotatable=0;labelPosition=right;points=[];portConstraint=eastwest;strokeColor=inherit;" vertex="1" parent="R9NU2i1qw7t-028HuFdZ-68">
          <mxGeometry y="80" width="240" height="8" as="geometry" />
        </mxCell>
        <mxCell id="R9NU2i1qw7t-028HuFdZ-71" value="propertyChange(evt: PropertyChangeEvent)" style="text;strokeColor=none;fillColor=none;align=left;verticalAlign=top;spacingLeft=4;spacingRight=4;overflow=hidden;rotatable=0;points=[[0,0.5],[1,0.5]];portConstraint=eastwest;whiteSpace=wrap;html=1;" vertex="1" parent="R9NU2i1qw7t-028HuFdZ-68">
          <mxGeometry y="88" width="240" height="42" as="geometry" />
        </mxCell>
        <mxCell id="R9NU2i1qw7t-028HuFdZ-72" value="Player" style="swimlane;fontStyle=1;align=center;verticalAlign=top;childLayout=stackLayout;horizontal=1;startSize=26;horizontalStack=0;resizeParent=1;resizeParentMax=0;resizeLast=0;collapsible=1;marginBottom=0;whiteSpace=wrap;html=1;" vertex="1" parent="1">
          <mxGeometry x="730" y="1130" width="240" height="280" as="geometry">
            <mxRectangle x="800" y="930" width="150" height="30" as="alternateBounds" />
          </mxGeometry>
        </mxCell>
        <mxCell id="R9NU2i1qw7t-028HuFdZ-73" value="&lt;div&gt;velocity: double&lt;/div&gt;&lt;div&gt;health: int&lt;/div&gt;&lt;div&gt;propertyChangeSupport: PropertyChangeSupport&lt;/div&gt;" style="text;strokeColor=none;fillColor=none;align=left;verticalAlign=top;spacingLeft=4;spacingRight=4;overflow=hidden;rotatable=0;points=[[0,0.5],[1,0.5]];portConstraint=eastwest;whiteSpace=wrap;html=1;" vertex="1" parent="R9NU2i1qw7t-028HuFdZ-72">
          <mxGeometry y="26" width="240" height="74" as="geometry" />
        </mxCell>
        <mxCell id="R9NU2i1qw7t-028HuFdZ-74" value="" style="line;strokeWidth=1;fillColor=none;align=left;verticalAlign=middle;spacingTop=-1;spacingLeft=3;spacingRight=3;rotatable=0;labelPosition=right;points=[];portConstraint=eastwest;strokeColor=inherit;" vertex="1" parent="R9NU2i1qw7t-028HuFdZ-72">
          <mxGeometry y="100" width="240" height="8" as="geometry" />
        </mxCell>
        <mxCell id="R9NU2i1qw7t-028HuFdZ-75" value="&lt;div&gt;+ getHealth()&lt;/div&gt;&lt;div&gt;+ moveDown()&lt;/div&gt;&lt;div&gt;+ moveLeft()&lt;/div&gt;&lt;div&gt;+ moveRight()&lt;/div&gt;&lt;div&gt;+ updateHealth(healthChange: int)&lt;/div&gt;&lt;div&gt;+ addPropertyChangeListener(listener: PropertyChangeListener)&lt;/div&gt;&lt;div&gt;+ removePropertyChangeListener(listener:&lt;/div&gt;&lt;div&gt;PropertyChangeListener)&lt;/div&gt;&lt;div&gt;+ propertyChange(evt: PropertyChangeEvent)&lt;br&gt;&lt;/div&gt;" style="text;strokeColor=none;fillColor=none;align=left;verticalAlign=top;spacingLeft=4;spacingRight=4;overflow=hidden;rotatable=0;points=[[0,0.5],[1,0.5]];portConstraint=eastwest;whiteSpace=wrap;html=1;" vertex="1" parent="R9NU2i1qw7t-028HuFdZ-72">
          <mxGeometry y="108" width="240" height="172" as="geometry" />
        </mxCell>
        <mxCell id="R9NU2i1qw7t-028HuFdZ-76" value="Sound" style="swimlane;fontStyle=1;align=center;verticalAlign=top;childLayout=stackLayout;horizontal=1;startSize=26;horizontalStack=0;resizeParent=1;resizeParentMax=0;resizeLast=0;collapsible=1;marginBottom=0;whiteSpace=wrap;html=1;" vertex="1" parent="1">
          <mxGeometry x="40" y="1960" width="240" height="100" as="geometry">
            <mxRectangle x="360" y="1640" width="150" height="30" as="alternateBounds" />
          </mxGeometry>
        </mxCell>
        <mxCell id="R9NU2i1qw7t-028HuFdZ-77" value="clip: Clip" style="text;strokeColor=none;fillColor=none;align=left;verticalAlign=top;spacingLeft=4;spacingRight=4;overflow=hidden;rotatable=0;points=[[0,0.5],[1,0.5]];portConstraint=eastwest;whiteSpace=wrap;html=1;" vertex="1" parent="R9NU2i1qw7t-028HuFdZ-76">
          <mxGeometry y="26" width="240" height="34" as="geometry" />
        </mxCell>
        <mxCell id="R9NU2i1qw7t-028HuFdZ-78" value="" style="line;strokeWidth=1;fillColor=none;align=left;verticalAlign=middle;spacingTop=-1;spacingLeft=3;spacingRight=3;rotatable=0;labelPosition=right;points=[];portConstraint=eastwest;strokeColor=inherit;" vertex="1" parent="R9NU2i1qw7t-028HuFdZ-76">
          <mxGeometry y="60" width="240" height="8" as="geometry" />
        </mxCell>
        <mxCell id="R9NU2i1qw7t-028HuFdZ-79" value="&lt;div&gt;+ play()&lt;/div&gt;" style="text;strokeColor=none;fillColor=none;align=left;verticalAlign=top;spacingLeft=4;spacingRight=4;overflow=hidden;rotatable=0;points=[[0,0.5],[1,0.5]];portConstraint=eastwest;whiteSpace=wrap;html=1;" vertex="1" parent="R9NU2i1qw7t-028HuFdZ-76">
          <mxGeometry y="68" width="240" height="32" as="geometry" />
        </mxCell>
        <mxCell id="R9NU2i1qw7t-028HuFdZ-80" value="SpecialEnemy" style="swimlane;fontStyle=1;align=center;verticalAlign=top;childLayout=stackLayout;horizontal=1;startSize=26;horizontalStack=0;resizeParent=1;resizeParentMax=0;resizeLast=0;collapsible=1;marginBottom=0;whiteSpace=wrap;html=1;" vertex="1" parent="1">
          <mxGeometry x="440" y="1514" width="240" height="240" as="geometry">
            <mxRectangle x="440" y="1480" width="150" height="30" as="alternateBounds" />
          </mxGeometry>
        </mxCell>
        <mxCell id="R9NU2i1qw7t-028HuFdZ-81" value="image: Image&lt;br&gt;xVelocity: int&lt;br&gt;yVelocity: double&lt;br&gt;rotate: int" style="text;strokeColor=none;fillColor=none;align=left;verticalAlign=top;spacingLeft=4;spacingRight=4;overflow=hidden;rotatable=0;points=[[0,0.5],[1,0.5]];portConstraint=eastwest;whiteSpace=wrap;html=1;" vertex="1" parent="R9NU2i1qw7t-028HuFdZ-80">
          <mxGeometry y="26" width="240" height="74" as="geometry" />
        </mxCell>
        <mxCell id="R9NU2i1qw7t-028HuFdZ-82" value="" style="line;strokeWidth=1;fillColor=none;align=left;verticalAlign=middle;spacingTop=-1;spacingLeft=3;spacingRight=3;rotatable=0;labelPosition=right;points=[];portConstraint=eastwest;strokeColor=inherit;" vertex="1" parent="R9NU2i1qw7t-028HuFdZ-80">
          <mxGeometry y="100" width="240" height="8" as="geometry" />
        </mxCell>
        <mxCell id="R9NU2i1qw7t-028HuFdZ-83" value="&lt;div&gt;+ getImage()&lt;/div&gt;&lt;div&gt;+ getxVelocity()&lt;/div&gt;&lt;div&gt;+ setxVelocity(xVelocity: int)&lt;/div&gt;&lt;div&gt;+ getyVelocity()&lt;/div&gt;&lt;div&gt;+ setyVelocity(yVelocity: double)&lt;/div&gt;&lt;div&gt;+ getRotate()&lt;/div&gt;&lt;div&gt;+ setRotate(rotate: int)&lt;/div&gt;&lt;div&gt;+ getBounds()&lt;br&gt;&lt;/div&gt;" style="text;strokeColor=none;fillColor=none;align=left;verticalAlign=top;spacingLeft=4;spacingRight=4;overflow=hidden;rotatable=0;points=[[0,0.5],[1,0.5]];portConstraint=eastwest;whiteSpace=wrap;html=1;" vertex="1" parent="R9NU2i1qw7t-028HuFdZ-80">
          <mxGeometry y="108" width="240" height="132" as="geometry" />
        </mxCell>
        <mxCell id="R9NU2i1qw7t-028HuFdZ-84" value="GameView" style="swimlane;fontStyle=1;align=center;verticalAlign=top;childLayout=stackLayout;horizontal=1;startSize=26;horizontalStack=0;resizeParent=1;resizeParentMax=0;resizeLast=0;collapsible=1;marginBottom=0;whiteSpace=wrap;html=1;" vertex="1" parent="1">
          <mxGeometry x="440" y="355" width="240" height="710" as="geometry">
            <mxRectangle x="440" y="355" width="160" height="30" as="alternateBounds" />
          </mxGeometry>
        </mxCell>
        <mxCell id="R9NU2i1qw7t-028HuFdZ-85" value="enemyImage: Image&lt;br&gt;specialEnemies: List&amp;lt;SpecialEnemy&amp;gt; &lt;br&gt;enemies: List&amp;lt;Enemy&amp;gt;&lt;br&gt;lastSpecialEnemyTime: long&lt;br&gt;scene: Scene&lt;br&gt;player: Player&lt;br&gt;model: GameModel&lt;br&gt;bulletGroup: Group&amp;nbsp; &lt;br&gt;root: Pane&lt;br&gt;gc: GraphicsContext&lt;br&gt;animationTimer: AnimationTimer&lt;br&gt;lastEnemyTime: long&lt;br&gt;enemyCreationInterval: long&lt;br&gt;startTime: long&lt;br&gt;isGameOver: boolean&lt;br&gt;hitSound: MediaPlayer&lt;br&gt;&lt;div&gt;scoreLabel: Label&lt;/div&gt;&lt;div&gt;startingHealth: int&lt;br&gt;hearts: ArrayList&amp;lt;ImageView&amp;gt;&lt;br&gt;heartsPane: Pane&lt;br&gt;healthBar: HealthBar&lt;br&gt;&lt;/div&gt;" style="text;strokeColor=none;fillColor=none;align=left;verticalAlign=top;spacingLeft=4;spacingRight=4;overflow=hidden;rotatable=0;points=[[0,0.5],[1,0.5]];portConstraint=eastwest;whiteSpace=wrap;html=1;" vertex="1" parent="R9NU2i1qw7t-028HuFdZ-84">
          <mxGeometry y="26" width="240" height="314" as="geometry" />
        </mxCell>
        <mxCell id="R9NU2i1qw7t-028HuFdZ-86" value="" style="line;strokeWidth=1;fillColor=none;align=left;verticalAlign=middle;spacingTop=-1;spacingLeft=3;spacingRight=3;rotatable=0;labelPosition=right;points=[];portConstraint=eastwest;strokeColor=inherit;" vertex="1" parent="R9NU2i1qw7t-028HuFdZ-84">
          <mxGeometry y="340" width="240" height="8" as="geometry" />
        </mxCell>
        <mxCell id="R9NU2i1qw7t-028HuFdZ-87" value="&lt;div&gt;+ handle (now: long)&lt;/div&gt;&lt;div&gt;+ addEnemy(currentTime: long)&lt;/div&gt;&lt;div&gt;+ addNormalEnemy(xPos: int, yPos: int, width: int, height: int)&lt;/div&gt;&lt;div&gt;+ addSpecialEnemy(xPos: int, width: int, height: int)&lt;/div&gt;&lt;div&gt;+ update()&lt;/div&gt;&lt;div&gt;+ render()&lt;/div&gt;&lt;div&gt;+ stop()&lt;/div&gt;&lt;div&gt;+ getBoundsInParent(imageView: ImageView)&lt;/div&gt;&lt;div&gt;+ showAlert(title: String, message: String)&lt;/div&gt;&lt;div&gt;+ showAlertWon(title: String, message: String&lt;/div&gt;&lt;div&gt;+ setEnemies(enemies: List&amp;lt;Enemy&amp;gt;)&lt;/div&gt;&lt;div&gt;+ setSpecialEnemies(specialEnemies: List&amp;lt;SpecialEnemy&amp;gt;)&lt;/div&gt;&lt;div&gt;+ getEnemies()&lt;/div&gt;&lt;div&gt;+ getSpecialEnemies()&lt;/div&gt;&lt;div&gt;+ getBulletGroup()&lt;/div&gt;&lt;div&gt;+ getScene()&lt;/div&gt;&lt;div&gt;+ getPlayer()&lt;/div&gt;&lt;div&gt;+ setScoreLabel(score: int)&lt;/div&gt;&lt;div&gt;+ setModel(model: GameModel )&lt;br&gt;&lt;/div&gt;" style="text;strokeColor=none;fillColor=none;align=left;verticalAlign=top;spacingLeft=4;spacingRight=4;overflow=hidden;rotatable=0;points=[[0,0.5],[1,0.5]];portConstraint=eastwest;whiteSpace=wrap;html=1;" vertex="1" parent="R9NU2i1qw7t-028HuFdZ-84">
          <mxGeometry y="348" width="240" height="362" as="geometry" />
        </mxCell>
        <mxCell id="R9NU2i1qw7t-028HuFdZ-88" value="Background" style="swimlane;fontStyle=1;align=center;verticalAlign=top;childLayout=stackLayout;horizontal=1;startSize=26;horizontalStack=0;resizeParent=1;resizeParentMax=0;resizeLast=0;collapsible=1;marginBottom=0;whiteSpace=wrap;html=1;" vertex="1" parent="1">
          <mxGeometry x="800" y="880" width="240" height="180" as="geometry">
            <mxRectangle x="800" y="880" width="150" height="30" as="alternateBounds" />
          </mxGeometry>
        </mxCell>
        <mxCell id="R9NU2i1qw7t-028HuFdZ-89" value="backgroundImage: Image&lt;br&gt;xPosition: double&lt;br&gt;yPosition: double&lt;br&gt;speed: double" style="text;strokeColor=none;fillColor=none;align=left;verticalAlign=top;spacingLeft=4;spacingRight=4;overflow=hidden;rotatable=0;points=[[0,0.5],[1,0.5]];portConstraint=eastwest;whiteSpace=wrap;html=1;" vertex="1" parent="R9NU2i1qw7t-028HuFdZ-88">
          <mxGeometry y="26" width="240" height="74" as="geometry" />
        </mxCell>
        <mxCell id="R9NU2i1qw7t-028HuFdZ-90" value="" style="line;strokeWidth=1;fillColor=none;align=left;verticalAlign=middle;spacingTop=-1;spacingLeft=3;spacingRight=3;rotatable=0;labelPosition=right;points=[];portConstraint=eastwest;strokeColor=inherit;" vertex="1" parent="R9NU2i1qw7t-028HuFdZ-88">
          <mxGeometry y="100" width="240" height="8" as="geometry" />
        </mxCell>
        <mxCell id="R9NU2i1qw7t-028HuFdZ-91" value="&lt;div&gt;+ move(elapsedTime: double)&lt;/div&gt;&lt;div&gt;+ render(gc: GraphicsContext, canvasWidth: double, canvasHeight: double)&lt;br&gt;&lt;/div&gt;" style="text;strokeColor=none;fillColor=none;align=left;verticalAlign=top;spacingLeft=4;spacingRight=4;overflow=hidden;rotatable=0;points=[[0,0.5],[1,0.5]];portConstraint=eastwest;whiteSpace=wrap;html=1;" vertex="1" parent="R9NU2i1qw7t-028HuFdZ-88">
          <mxGeometry y="108" width="240" height="72" as="geometry" />
        </mxCell>
        <mxCell id="R9NU2i1qw7t-028HuFdZ-107" value="" style="endArrow=block;endSize=16;endFill=0;html=1;rounded=0;entryX=0.015;entryY=0.1;entryDx=0;entryDy=0;entryPerimeter=0;" edge="1" parent="1" source="R9NU2i1qw7t-028HuFdZ-52" target="R9NU2i1qw7t-028HuFdZ-18">
          <mxGeometry x="0.0114" width="160" relative="1" as="geometry">
            <mxPoint x="145" y="110" as="sourcePoint" />
            <mxPoint x="305" y="110" as="targetPoint" />
            <mxPoint as="offset" />
          </mxGeometry>
        </mxCell>
        <mxCell id="R9NU2i1qw7t-028HuFdZ-108" value="" style="endArrow=block;endSize=16;endFill=0;html=1;rounded=0;entryX=1.015;entryY=-0.115;entryDx=0;entryDy=0;entryPerimeter=0;exitX=0.004;exitY=0.036;exitDx=0;exitDy=0;exitPerimeter=0;" edge="1" parent="1" source="R9NU2i1qw7t-028HuFdZ-38" target="R9NU2i1qw7t-028HuFdZ-19">
          <mxGeometry width="160" relative="1" as="geometry">
            <mxPoint x="200" y="480" as="sourcePoint" />
            <mxPoint x="310" y="690" as="targetPoint" />
          </mxGeometry>
        </mxCell>
        <mxCell id="R9NU2i1qw7t-028HuFdZ-110" value="" style="endArrow=block;endSize=16;endFill=0;html=1;rounded=0;entryX=0.998;entryY=1.02;entryDx=0;entryDy=0;exitX=0;exitY=0;exitDx=0;exitDy=0;entryPerimeter=0;" edge="1" parent="1" source="R9NU2i1qw7t-028HuFdZ-34" target="R9NU2i1qw7t-028HuFdZ-21">
          <mxGeometry width="160" relative="1" as="geometry">
            <mxPoint x="600" y="95" as="sourcePoint" />
            <mxPoint x="490" y="195" as="targetPoint" />
          </mxGeometry>
        </mxCell>
        <mxCell id="R9NU2i1qw7t-028HuFdZ-111" value="" style="endArrow=block;endSize=16;endFill=0;html=1;rounded=0;exitX=1;exitY=0;exitDx=0;exitDy=0;entryX=0.006;entryY=0.887;entryDx=0;entryDy=0;entryPerimeter=0;" edge="1" parent="1" source="R9NU2i1qw7t-028HuFdZ-26" target="R9NU2i1qw7t-028HuFdZ-21">
          <mxGeometry width="160" relative="1" as="geometry">
            <mxPoint x="460" y="340" as="sourcePoint" />
            <mxPoint x="240" y="260" as="targetPoint" />
          </mxGeometry>
        </mxCell>
        <mxCell id="R9NU2i1qw7t-028HuFdZ-117" value="" style="endArrow=block;endSize=16;endFill=0;html=1;rounded=0;entryX=0.482;entryY=1.051;entryDx=0;entryDy=0;entryPerimeter=0;exitX=0.68;exitY=0.031;exitDx=0;exitDy=0;exitPerimeter=0;" edge="1" parent="1">
          <mxGeometry width="160" relative="1" as="geometry">
            <mxPoint x="155.60000000000014" y="735.96" as="sourcePoint" />
            <mxPoint x="155.68000000000006" y="649.6719999999998" as="targetPoint" />
          </mxGeometry>
        </mxCell>
        <mxCell id="R9NU2i1qw7t-028HuFdZ-119" value="" style="endArrow=block;endSize=16;endFill=0;html=1;rounded=0;exitX=0.454;exitY=0.002;exitDx=0;exitDy=0;exitPerimeter=0;entryX=0.26;entryY=1.021;entryDx=0;entryDy=0;entryPerimeter=0;" edge="1" parent="1" source="R9NU2i1qw7t-028HuFdZ-34" target="R9NU2i1qw7t-028HuFdZ-41">
          <mxGeometry x="1" y="308" width="160" relative="1" as="geometry">
            <mxPoint x="1310" y="574.5" as="sourcePoint" />
            <mxPoint x="1310" y="480" as="targetPoint" />
            <mxPoint x="250" y="128" as="offset" />
          </mxGeometry>
        </mxCell>
        <mxCell id="R9NU2i1qw7t-028HuFdZ-120" value="" style="endArrow=block;endSize=16;endFill=0;html=1;rounded=0;entryX=0.915;entryY=1.016;entryDx=0;entryDy=0;entryPerimeter=0;exitX=0.5;exitY=0;exitDx=0;exitDy=0;" edge="1" parent="1" source="R9NU2i1qw7t-028HuFdZ-80">
          <mxGeometry x="-0.25" width="160" relative="1" as="geometry">
            <mxPoint x="561.32" y="1514" as="sourcePoint" />
            <mxPoint x="558.6800000000002" y="1439.312" as="targetPoint" />
            <mxPoint as="offset" />
          </mxGeometry>
        </mxCell>
        <mxCell id="R9NU2i1qw7t-028HuFdZ-122" value="" style="endArrow=block;endSize=16;endFill=0;html=1;rounded=0;" edge="1" parent="1">
          <mxGeometry width="160" relative="1" as="geometry">
            <mxPoint x="559.33" y="1125" as="sourcePoint" />
            <mxPoint x="559.33" y="1065" as="targetPoint" />
          </mxGeometry>
        </mxCell>
        <mxCell id="R9NU2i1qw7t-028HuFdZ-123" value="" style="endArrow=block;endSize=16;endFill=0;html=1;rounded=0;exitX=0;exitY=0.5;exitDx=0;exitDy=0;entryX=0.999;entryY=0.744;entryDx=0;entryDy=0;entryPerimeter=0;" edge="1" parent="1" source="R9NU2i1qw7t-028HuFdZ-88" target="R9NU2i1qw7t-028HuFdZ-87">
          <mxGeometry width="160" relative="1" as="geometry">
            <mxPoint x="470" y="810" as="sourcePoint" />
            <mxPoint x="460" y="860" as="targetPoint" />
          </mxGeometry>
        </mxCell>
        <mxCell id="R9NU2i1qw7t-028HuFdZ-124" value="" style="endArrow=block;endSize=16;endFill=0;html=1;rounded=0;entryX=0.993;entryY=1.006;entryDx=0;entryDy=0;exitX=0;exitY=0.5;exitDx=0;exitDy=0;entryPerimeter=0;" edge="1" parent="1" source="R9NU2i1qw7t-028HuFdZ-72" target="R9NU2i1qw7t-028HuFdZ-87">
          <mxGeometry width="160" relative="1" as="geometry">
            <mxPoint x="610" y="930" as="sourcePoint" />
            <mxPoint x="560" y="930" as="targetPoint" />
          </mxGeometry>
        </mxCell>
        <mxCell id="R9NU2i1qw7t-028HuFdZ-125" value="" style="endArrow=block;endSize=16;endFill=0;html=1;rounded=0;entryX=0.425;entryY=-0.011;entryDx=0;entryDy=0;entryPerimeter=0;" edge="1" parent="1" target="R9NU2i1qw7t-028HuFdZ-52">
          <mxGeometry x="0.0114" width="160" relative="1" as="geometry">
            <mxPoint x="145" y="220" as="sourcePoint" />
            <mxPoint x="106" y="1039" as="targetPoint" />
            <mxPoint as="offset" />
          </mxGeometry>
        </mxCell>
        <mxCell id="R9NU2i1qw7t-028HuFdZ-52" value="RegistrationController" style="swimlane;fontStyle=1;align=center;verticalAlign=top;childLayout=stackLayout;horizontal=1;startSize=26;horizontalStack=0;resizeParent=1;resizeParentMax=0;resizeLast=0;collapsible=1;marginBottom=0;whiteSpace=wrap;html=1;" vertex="1" parent="1">
          <mxGeometry x="40" y="280" width="240" height="180" as="geometry">
            <mxRectangle x="50" y="330" width="150" height="30" as="alternateBounds" />
          </mxGeometry>
        </mxCell>
        <mxCell id="R9NU2i1qw7t-028HuFdZ-53" value="nameField: TextField&lt;br&gt;passwordField: PasswordField&lt;br&gt;imageView: ImageView&lt;br&gt;&lt;div&gt;registerButton: Button&lt;/div&gt;&lt;div&gt;picture: Image&lt;br&gt;&lt;/div&gt;" style="text;strokeColor=none;fillColor=none;align=left;verticalAlign=top;spacingLeft=4;spacingRight=4;overflow=hidden;rotatable=0;points=[[0,0.5],[1,0.5]];portConstraint=eastwest;whiteSpace=wrap;html=1;" vertex="1" parent="R9NU2i1qw7t-028HuFdZ-52">
          <mxGeometry y="26" width="240" height="84" as="geometry" />
        </mxCell>
        <mxCell id="R9NU2i1qw7t-028HuFdZ-54" value="" style="line;strokeWidth=1;fillColor=none;align=left;verticalAlign=middle;spacingTop=-1;spacingLeft=3;spacingRight=3;rotatable=0;labelPosition=right;points=[];portConstraint=eastwest;strokeColor=inherit;" vertex="1" parent="R9NU2i1qw7t-028HuFdZ-52">
          <mxGeometry y="110" width="240" height="8" as="geometry" />
        </mxCell>
        <mxCell id="R9NU2i1qw7t-028HuFdZ-55" value="+ handleRegisterButton(event: ActionEvent)&lt;div&gt;+ handleCancelButtonAction(event: ActionEvent)&lt;/div&gt;" style="text;strokeColor=none;fillColor=none;align=left;verticalAlign=top;spacingLeft=4;spacingRight=4;overflow=hidden;rotatable=0;points=[[0,0.5],[1,0.5]];portConstraint=eastwest;whiteSpace=wrap;html=1;" vertex="1" parent="R9NU2i1qw7t-028HuFdZ-52">
          <mxGeometry y="118" width="240" height="62" as="geometry" />
        </mxCell>
        <mxCell id="R9NU2i1qw7t-028HuFdZ-131" value="Enemy" style="swimlane;fontStyle=1;align=center;verticalAlign=top;childLayout=stackLayout;horizontal=1;startSize=26;horizontalStack=0;resizeParent=1;resizeParentMax=0;resizeLast=0;collapsible=1;marginBottom=0;whiteSpace=wrap;html=1;" vertex="1" parent="1">
          <mxGeometry x="440" y="1130" width="240" height="310" as="geometry">
            <mxRectangle x="460" y="1120" width="150" height="30" as="alternateBounds" />
          </mxGeometry>
        </mxCell>
        <mxCell id="R9NU2i1qw7t-028HuFdZ-132" value="health: int&lt;br&gt;speed: int&lt;br&gt;xPos: int&lt;br&gt;yPos: int&lt;br&gt;width: int&lt;br&gt;height: int" style="text;strokeColor=none;fillColor=none;align=left;verticalAlign=top;spacingLeft=4;spacingRight=4;overflow=hidden;rotatable=0;points=[[0,0.5],[1,0.5]];portConstraint=eastwest;whiteSpace=wrap;html=1;" vertex="1" parent="R9NU2i1qw7t-028HuFdZ-131">
          <mxGeometry y="26" width="240" height="94" as="geometry" />
        </mxCell>
        <mxCell id="R9NU2i1qw7t-028HuFdZ-133" value="" style="line;strokeWidth=1;fillColor=none;align=left;verticalAlign=middle;spacingTop=-1;spacingLeft=3;spacingRight=3;rotatable=0;labelPosition=right;points=[];portConstraint=eastwest;strokeColor=inherit;" vertex="1" parent="R9NU2i1qw7t-028HuFdZ-131">
          <mxGeometry y="120" width="240" height="8" as="geometry" />
        </mxCell>
        <mxCell id="R9NU2i1qw7t-028HuFdZ-134" value="&lt;div&gt;+ getHealth()&lt;/div&gt;&lt;div&gt;+ getSpeed()&lt;/div&gt;&lt;div&gt;+ getXPos()&lt;/div&gt;&lt;div&gt;+ getYPos()&lt;/div&gt;&lt;div&gt;+ getWidth()&lt;/div&gt;&lt;div&gt;+ getHeight()&lt;/div&gt;&lt;div&gt;+ setYPos(yPos: int)&lt;/div&gt;&lt;div&gt;+ move()&lt;/div&gt;&lt;div&gt;+ takeDamage(damage: int)&lt;/div&gt;&lt;div&gt;+ getBounds()&lt;/div&gt;&lt;div&gt;+ hit()&lt;/div&gt;&lt;div&gt;+ isDestroyed()&lt;br&gt;&lt;/div&gt;" style="text;strokeColor=none;fillColor=none;align=left;verticalAlign=top;spacingLeft=4;spacingRight=4;overflow=hidden;rotatable=0;points=[[0,0.5],[1,0.5]];portConstraint=eastwest;whiteSpace=wrap;html=1;" vertex="1" parent="R9NU2i1qw7t-028HuFdZ-131">
          <mxGeometry y="128" width="240" height="182" as="geometry" />
        </mxCell>
        <mxCell id="R9NU2i1qw7t-028HuFdZ-137" value="" style="endArrow=block;endSize=16;endFill=0;html=1;rounded=0;entryX=0.665;entryY=1.127;entryDx=0;entryDy=0;entryPerimeter=0;exitX=0.064;exitY=-0.01;exitDx=0;exitDy=0;exitPerimeter=0;" edge="1" parent="1" source="R9NU2i1qw7t-028HuFdZ-43" target="R9NU2i1qw7t-028HuFdZ-21">
          <mxGeometry width="160" relative="1" as="geometry">
            <mxPoint x="760.0000000000001" y="436.29" as="sourcePoint" />
            <mxPoint x="760.08" y="350.0019999999998" as="targetPoint" />
          </mxGeometry>
        </mxCell>
        <mxCell id="LEKk-mXt2IxM29KxQdRl-1" value="" style="endArrow=block;endSize=16;endFill=0;html=1;rounded=0;exitX=0.5;exitY=0;exitDx=0;exitDy=0;" edge="1" parent="1" source="R9NU2i1qw7t-028HuFdZ-64">
          <mxGeometry width="160" relative="1" as="geometry">
            <mxPoint x="159.33" y="1664" as="sourcePoint" />
            <mxPoint x="159.33" y="1604" as="targetPoint" />
          </mxGeometry>
        </mxCell>
        <mxCell id="LEKk-mXt2IxM29KxQdRl-2" value="" style="endArrow=block;endSize=16;endFill=0;html=1;rounded=0;exitX=0.5;exitY=0;exitDx=0;exitDy=0;" edge="1" parent="1">
          <mxGeometry width="160" relative="1" as="geometry">
            <mxPoint x="160" y="1956" as="sourcePoint" />
            <mxPoint x="159.33" y="1870" as="targetPoint" />
          </mxGeometry>
        </mxCell>
      </root>
    </mxGraphModel>
  </diagram>
  <diagram name="ohne welcome und registration" id="cNbGLBr5N2hytxtctC3j">
    <mxGraphModel dx="1906" dy="1094" grid="1" gridSize="10" guides="1" tooltips="1" connect="1" arrows="1" fold="1" page="1" pageScale="1" pageWidth="1654" pageHeight="1169" math="0" shadow="0">
      <root>
        <mxCell id="WPHEw-IVUdy1KVsQDdNB-0" />
        <mxCell id="WPHEw-IVUdy1KVsQDdNB-1" parent="WPHEw-IVUdy1KVsQDdNB-0" />
        <mxCell id="WPHEw-IVUdy1KVsQDdNB-2" value="DatabaseConnection" style="swimlane;fontStyle=1;align=center;verticalAlign=top;childLayout=stackLayout;horizontal=1;startSize=26;horizontalStack=0;resizeParent=1;resizeParentMax=0;resizeLast=0;collapsible=1;marginBottom=0;whiteSpace=wrap;html=1;" vertex="1" parent="WPHEw-IVUdy1KVsQDdNB-1">
          <mxGeometry x="640" y="40" width="160" height="110" as="geometry">
            <mxRectangle x="80" y="540" width="160" height="30" as="alternateBounds" />
          </mxGeometry>
        </mxCell>
        <mxCell id="WPHEw-IVUdy1KVsQDdNB-3" value="- Connection: connection" style="text;strokeColor=none;fillColor=none;align=left;verticalAlign=top;spacingLeft=4;spacingRight=4;overflow=hidden;rotatable=0;points=[[0,0.5],[1,0.5]];portConstraint=eastwest;whiteSpace=wrap;html=1;" vertex="1" parent="WPHEw-IVUdy1KVsQDdNB-2">
          <mxGeometry y="26" width="160" height="26" as="geometry" />
        </mxCell>
        <mxCell id="WPHEw-IVUdy1KVsQDdNB-4" value="" style="line;strokeWidth=1;fillColor=none;align=left;verticalAlign=middle;spacingTop=-1;spacingLeft=3;spacingRight=3;rotatable=0;labelPosition=right;points=[];portConstraint=eastwest;strokeColor=inherit;" vertex="1" parent="WPHEw-IVUdy1KVsQDdNB-2">
          <mxGeometry y="52" width="160" height="8" as="geometry" />
        </mxCell>
        <mxCell id="WPHEw-IVUdy1KVsQDdNB-5" value="&lt;div&gt;+ Connection &lt;br&gt;+ getConnection()&lt;/div&gt;&lt;div&gt;+ void close()&lt;br&gt;&lt;/div&gt;" style="text;strokeColor=none;fillColor=none;align=left;verticalAlign=top;spacingLeft=4;spacingRight=4;overflow=hidden;rotatable=0;points=[[0,0.5],[1,0.5]];portConstraint=eastwest;whiteSpace=wrap;html=1;" vertex="1" parent="WPHEw-IVUdy1KVsQDdNB-2">
          <mxGeometry y="60" width="160" height="50" as="geometry" />
        </mxCell>
        <mxCell id="WPHEw-IVUdy1KVsQDdNB-6" value="GameController" style="swimlane;fontStyle=1;align=center;verticalAlign=top;childLayout=stackLayout;horizontal=1;startSize=26;horizontalStack=0;resizeParent=1;resizeParentMax=0;resizeLast=0;collapsible=1;marginBottom=0;whiteSpace=wrap;html=1;" vertex="1" parent="WPHEw-IVUdy1KVsQDdNB-1">
          <mxGeometry x="40" y="1208" width="240" height="650" as="geometry">
            <mxRectangle x="40" y="950" width="160" height="30" as="alternateBounds" />
          </mxGeometry>
        </mxCell>
        <mxCell id="WPHEw-IVUdy1KVsQDdNB-7" value="- model: GameModel;&lt;br&gt;- view: GameView;&lt;br&gt;- spaceship: ImageView;&lt;br&gt;- velocityX: double;&lt;br&gt;&lt;div&gt;- velocityY: double;&lt;/div&gt;&lt;div&gt;- isUpPressed: boolean;&lt;/div&gt;- isDownPressed: boolean;&lt;br&gt;- isLeftPressed: boolean;&lt;br&gt;- isRightPressed: boolean;&lt;br&gt;- bullets:List&amp;lt;ImageView&amp;gt;&lt;br&gt;&lt;div&gt;- enemies: List &amp;lt;Enemy&amp;gt;&lt;/div&gt;&lt;div&gt;- specialEnemies: List&amp;lt;SpecialEnemy&amp;gt; &lt;/div&gt;" style="text;strokeColor=none;fillColor=none;align=left;verticalAlign=top;spacingLeft=4;spacingRight=4;overflow=hidden;rotatable=0;points=[[0,0.5],[1,0.5]];portConstraint=eastwest;whiteSpace=wrap;html=1;" vertex="1" parent="WPHEw-IVUdy1KVsQDdNB-6">
          <mxGeometry y="26" width="240" height="194" as="geometry" />
        </mxCell>
        <mxCell id="WPHEw-IVUdy1KVsQDdNB-8" value="" style="line;strokeWidth=1;fillColor=none;align=left;verticalAlign=middle;spacingTop=-1;spacingLeft=3;spacingRight=3;rotatable=0;labelPosition=right;points=[];portConstraint=eastwest;strokeColor=inherit;" vertex="1" parent="WPHEw-IVUdy1KVsQDdNB-6">
          <mxGeometry y="220" width="240" height="8" as="geometry" />
        </mxCell>
        <mxCell id="WPHEw-IVUdy1KVsQDdNB-9" value="&lt;div&gt;+ handle (long: now)&lt;/div&gt;&lt;div&gt;+ shoot(player: Player)&lt;/div&gt;&lt;div&gt;+ checkCollision()&lt;/div&gt;&lt;div&gt;+ checkBulletCollision(&lt;/div&gt;&lt;div&gt;bullets: List&amp;lt;ImageView&amp;gt; &lt;br&gt;&lt;/div&gt;&lt;div&gt;enemies: List&amp;lt;Enemy&amp;gt; &lt;br&gt;&lt;/div&gt;&lt;div&gt;specialEnemies: List&amp;lt;SpecialEnemy&amp;gt; &lt;br&gt;bulletsToRemove: List&amp;lt;ImageView&amp;gt; enemiesToRemove: List&amp;lt;Enemy&amp;gt;&lt;br&gt;specialEnemiesToRemove: List&amp;lt;SpecialEnemy&amp;gt; )&lt;/div&gt;&lt;div&gt;+ removeBulletsAndEnemies(&lt;br&gt;bulletsToRemove: List&amp;lt;ImageView&amp;gt;&lt;/div&gt;&lt;div&gt;enemiesToRemove: List&amp;lt;Enemy&amp;gt; &lt;br&gt;specialEnemiesToRemove: List&amp;lt;SpecialEnemy&amp;gt;)&lt;/div&gt;&lt;div&gt;+ calculateScoreIncrease(&lt;/div&gt;&lt;div&gt;enemiesToRemove: List&amp;lt;Enemy&amp;gt;  specialEnemiesToRemove: List&amp;lt;SpecialEnemy&amp;gt;)&lt;/div&gt;&lt;div&gt;+ updateScore(scoreIncrease: int)&lt;/div&gt;&lt;div&gt;+ checkPlayerHit(player: Player)&lt;/div&gt;&lt;div&gt;+ isPlayerHit(player: Player)&lt;/div&gt;&lt;div&gt;+ getBoundsInParent(imageView: ImageView)&lt;/div&gt;&lt;div&gt;+ addBullet(bullet: ImageView)&lt;/div&gt;&lt;div&gt;+ addBullet(bullet1: ImageView, bullet2: ImageView )&lt;br&gt;&lt;/div&gt;" style="text;strokeColor=none;fillColor=none;align=left;verticalAlign=top;spacingLeft=4;spacingRight=4;overflow=hidden;rotatable=0;points=[[0,0.5],[1,0.5]];portConstraint=eastwest;whiteSpace=wrap;html=1;" vertex="1" parent="WPHEw-IVUdy1KVsQDdNB-6">
          <mxGeometry y="228" width="240" height="422" as="geometry" />
        </mxCell>
        <mxCell id="WPHEw-IVUdy1KVsQDdNB-10" value="HighscoreController" style="swimlane;fontStyle=1;align=center;verticalAlign=top;childLayout=stackLayout;horizontal=1;startSize=26;horizontalStack=0;resizeParent=1;resizeParentMax=0;resizeLast=0;collapsible=1;marginBottom=0;whiteSpace=wrap;html=1;" vertex="1" parent="WPHEw-IVUdy1KVsQDdNB-1">
          <mxGeometry x="40" y="770" width="240" height="150" as="geometry">
            <mxRectangle x="570" y="620" width="160" height="30" as="alternateBounds" />
          </mxGeometry>
        </mxCell>
        <mxCell id="WPHEw-IVUdy1KVsQDdNB-11" value="- dbConnection: DatabaseConnection" style="text;strokeColor=none;fillColor=none;align=left;verticalAlign=top;spacingLeft=4;spacingRight=4;overflow=hidden;rotatable=0;points=[[0,0.5],[1,0.5]];portConstraint=eastwest;whiteSpace=wrap;html=1;" vertex="1" parent="WPHEw-IVUdy1KVsQDdNB-10">
          <mxGeometry y="26" width="240" height="44" as="geometry" />
        </mxCell>
        <mxCell id="WPHEw-IVUdy1KVsQDdNB-12" value="" style="line;strokeWidth=1;fillColor=none;align=left;verticalAlign=middle;spacingTop=-1;spacingLeft=3;spacingRight=3;rotatable=0;labelPosition=right;points=[];portConstraint=eastwest;strokeColor=inherit;" vertex="1" parent="WPHEw-IVUdy1KVsQDdNB-10">
          <mxGeometry y="70" width="240" height="8" as="geometry" />
        </mxCell>
        <mxCell id="WPHEw-IVUdy1KVsQDdNB-13" value="+ getHighscore(playerName: String)&lt;div&gt;+ updateHighscore(playerName: String, newHighscore: int)&lt;/div&gt;&lt;div&gt;+ getAllHighscores()&lt;br&gt;&lt;/div&gt;" style="text;strokeColor=none;fillColor=none;align=left;verticalAlign=top;spacingLeft=4;spacingRight=4;overflow=hidden;rotatable=0;points=[[0,0.5],[1,0.5]];portConstraint=eastwest;whiteSpace=wrap;html=1;" vertex="1" parent="WPHEw-IVUdy1KVsQDdNB-10">
          <mxGeometry y="78" width="240" height="72" as="geometry" />
        </mxCell>
        <mxCell id="kKN7BocD8W2woPgvCXma-5" value="" style="edgeStyle=orthogonalEdgeStyle;rounded=0;orthogonalLoop=1;jettySize=auto;html=1;" edge="1" parent="WPHEw-IVUdy1KVsQDdNB-1" source="WPHEw-IVUdy1KVsQDdNB-14" target="WPHEw-IVUdy1KVsQDdNB-13">
          <mxGeometry relative="1" as="geometry" />
        </mxCell>
        <mxCell id="WPHEw-IVUdy1KVsQDdNB-14" value="HighscoreScene" style="swimlane;fontStyle=1;align=center;verticalAlign=top;childLayout=stackLayout;horizontal=1;startSize=26;horizontalStack=0;resizeParent=1;resizeParentMax=0;resizeLast=0;collapsible=1;marginBottom=0;whiteSpace=wrap;html=1;" vertex="1" parent="WPHEw-IVUdy1KVsQDdNB-1">
          <mxGeometry x="40" y="989" width="240" height="160" as="geometry">
            <mxRectangle x="809" y="620" width="130" height="30" as="alternateBounds" />
          </mxGeometry>
        </mxCell>
        <mxCell id="WPHEw-IVUdy1KVsQDdNB-15" value="&lt;div&gt;- BackButton: Button&lt;/div&gt;&lt;div&gt;- HighScores: GridPane&lt;br&gt;&lt;/div&gt;&lt;div&gt;- highscoreController: HighscoreController&lt;br&gt;&lt;/div&gt;&lt;div&gt;&lt;br&gt;&lt;/div&gt;" style="text;strokeColor=none;fillColor=none;align=left;verticalAlign=top;spacingLeft=4;spacingRight=4;overflow=hidden;rotatable=0;points=[[0,0.5],[1,0.5]];portConstraint=eastwest;whiteSpace=wrap;html=1;" vertex="1" parent="WPHEw-IVUdy1KVsQDdNB-14">
          <mxGeometry y="26" width="240" height="64" as="geometry" />
        </mxCell>
        <mxCell id="WPHEw-IVUdy1KVsQDdNB-16" value="" style="line;strokeWidth=1;fillColor=none;align=left;verticalAlign=middle;spacingTop=-1;spacingLeft=3;spacingRight=3;rotatable=0;labelPosition=right;points=[];portConstraint=eastwest;strokeColor=inherit;" vertex="1" parent="WPHEw-IVUdy1KVsQDdNB-14">
          <mxGeometry y="90" width="240" height="8" as="geometry" />
        </mxCell>
        <mxCell id="WPHEw-IVUdy1KVsQDdNB-17" value="+ initialize()&lt;div&gt;+ handleBackButton(event: ActionEvent)&lt;br&gt;&lt;/div&gt;" style="text;strokeColor=none;fillColor=none;align=left;verticalAlign=top;spacingLeft=4;spacingRight=4;overflow=hidden;rotatable=0;points=[[0,0.5],[1,0.5]];portConstraint=eastwest;whiteSpace=wrap;html=1;" vertex="1" parent="WPHEw-IVUdy1KVsQDdNB-14">
          <mxGeometry y="98" width="240" height="62" as="geometry" />
        </mxCell>
        <mxCell id="WPHEw-IVUdy1KVsQDdNB-18" value="LobbyController" style="swimlane;fontStyle=1;align=center;verticalAlign=top;childLayout=stackLayout;horizontal=1;startSize=26;horizontalStack=0;resizeParent=1;resizeParentMax=0;resizeLast=0;collapsible=1;marginBottom=0;whiteSpace=wrap;html=1;" vertex="1" parent="WPHEw-IVUdy1KVsQDdNB-1">
          <mxGeometry x="1400" y="510" width="240" height="550" as="geometry">
            <mxRectangle x="310" y="520" width="130" height="30" as="alternateBounds" />
          </mxGeometry>
        </mxCell>
        <mxCell id="WPHEw-IVUdy1KVsQDdNB-19" value="&lt;div&gt;- loggedInUserName: String&lt;/div&gt;&lt;div&gt;- PlayerTwoName: String&lt;br&gt;&lt;/div&gt;- dbID: String&lt;br&gt;&lt;div&gt;- dbConnection: DatabaseConnection&lt;/div&gt;&lt;div&gt;- resolution: String&lt;/div&gt;&lt;div&gt;- width: int&lt;/div&gt;&lt;div&gt;- hight: int&lt;/div&gt;&lt;div&gt;- DBURL: String&lt;/div&gt;&lt;div&gt;- DBUser: String&lt;/div&gt;&lt;div&gt;- DBPassword: String&lt;/div&gt;&lt;div&gt;- userSettingsDAO: UserSettingsDAO&lt;br&gt;&lt;/div&gt;&lt;div&gt;- cP: ColorPicker&lt;/div&gt;&lt;div&gt;- anchorPane: AnchorPane&lt;/div&gt;&lt;div&gt;- SinglePlayerButton: Button&lt;br&gt;- MultiplayerButton: Button&lt;br&gt;- SettingsButton: Buttons&lt;br&gt;- Highscores: Buttons&lt;br&gt;- CloseButton: Button&lt;br&gt;- ToggleButton: Toggle&lt;br&gt;- UserName: Label &lt;br&gt;&lt;/div&gt;&lt;div&gt;- Avatar: ImageView SaveSettingsButton: Button&lt;br&gt;&lt;/div&gt;" style="text;strokeColor=none;fillColor=none;align=left;verticalAlign=top;spacingLeft=4;spacingRight=4;overflow=hidden;rotatable=0;points=[[0,0.5],[1,0.5]];portConstraint=eastwest;whiteSpace=wrap;html=1;" vertex="1" parent="WPHEw-IVUdy1KVsQDdNB-18">
          <mxGeometry y="26" width="240" height="334" as="geometry" />
        </mxCell>
        <mxCell id="WPHEw-IVUdy1KVsQDdNB-20" value="" style="line;strokeWidth=1;fillColor=none;align=left;verticalAlign=middle;spacingTop=-1;spacingLeft=3;spacingRight=3;rotatable=0;labelPosition=right;points=[];portConstraint=eastwest;strokeColor=inherit;" vertex="1" parent="WPHEw-IVUdy1KVsQDdNB-18">
          <mxGeometry y="360" width="240" height="8" as="geometry" />
        </mxCell>
        <mxCell id="WPHEw-IVUdy1KVsQDdNB-21" value="&lt;div&gt;+ setLoggedInUserName(userName: String)&lt;br&gt;&lt;/div&gt;&lt;div&gt;+ close()&lt;/div&gt;&lt;div&gt;+ handleCloseButton(event: ActionEvent)&lt;/div&gt;&lt;div&gt;+ handleSinglePlayerButton(event: ActionEvent)&lt;/div&gt;&lt;div&gt;+ handleMultiPlayerButton(event: ActionEvent)&lt;/div&gt;&lt;div&gt;+ handleHighscoreButton(event: ActionEvent)&lt;/div&gt;&lt;div&gt;+ handleSettingsButton(event: ActionEvent)&lt;/div&gt;" style="text;strokeColor=none;fillColor=none;align=left;verticalAlign=top;spacingLeft=4;spacingRight=4;overflow=hidden;rotatable=0;points=[[0,0.5],[1,0.5]];portConstraint=eastwest;whiteSpace=wrap;html=1;" vertex="1" parent="WPHEw-IVUdy1KVsQDdNB-18">
          <mxGeometry y="368" width="240" height="182" as="geometry" />
        </mxCell>
        <mxCell id="WPHEw-IVUdy1KVsQDdNB-22" value="LoginController" style="swimlane;fontStyle=1;align=center;verticalAlign=top;childLayout=stackLayout;horizontal=1;startSize=26;horizontalStack=0;resizeParent=1;resizeParentMax=0;resizeLast=0;collapsible=1;marginBottom=0;whiteSpace=wrap;html=1;" vertex="1" parent="WPHEw-IVUdy1KVsQDdNB-1">
          <mxGeometry x="1400" y="40" width="240" height="430" as="geometry">
            <mxRectangle x="40" y="710" width="130" height="30" as="alternateBounds" />
          </mxGeometry>
        </mxCell>
        <mxCell id="WPHEw-IVUdy1KVsQDdNB-23" value="- url: String&lt;br&gt;- user: String&lt;br&gt;- password: String&lt;br&gt;- userDAO: UserDAO&lt;br&gt;- stmt: Statement&lt;br&gt;- rs: ResultSet &lt;br&gt;- loggedInUserName: String&lt;br&gt;- LoginButton: Button&lt;br&gt;- resetButton: Button&lt;br&gt;- userIDField: TextField&lt;br&gt;- userPasswordField: PasswordField&lt;br&gt;- createUserAccount: Button&lt;br&gt;- abbrechenCreateUserAccount: Button&lt;br&gt;- RegisterUserNameField: TextField&lt;br&gt;- RegisterUserPasswordField: PasswordField&lt;br&gt;- RegisterButton: Button&lt;br&gt;- devLogin: Button" style="text;strokeColor=none;fillColor=none;align=left;verticalAlign=top;spacingLeft=4;spacingRight=4;overflow=hidden;rotatable=0;points=[[0,0.5],[1,0.5]];portConstraint=eastwest;whiteSpace=wrap;html=1;" vertex="1" parent="WPHEw-IVUdy1KVsQDdNB-22">
          <mxGeometry y="26" width="240" height="274" as="geometry" />
        </mxCell>
        <mxCell id="WPHEw-IVUdy1KVsQDdNB-24" value="" style="line;strokeWidth=1;fillColor=none;align=left;verticalAlign=middle;spacingTop=-1;spacingLeft=3;spacingRight=3;rotatable=0;labelPosition=right;points=[];portConstraint=eastwest;strokeColor=inherit;" vertex="1" parent="WPHEw-IVUdy1KVsQDdNB-22">
          <mxGeometry y="300" width="240" height="8" as="geometry" />
        </mxCell>
        <mxCell id="WPHEw-IVUdy1KVsQDdNB-25" value="&lt;div&gt;+ userLogin(e: ActionEvent)&lt;/div&gt;&lt;div&gt;+ reset(e: ActionEvent)&lt;/div&gt;&lt;div&gt;+ switchTocreateUser(event: ActionEvent)&lt;/div&gt;&lt;div&gt;+ switchToLoginScreen(event: ActionEvent)&lt;/div&gt;&lt;div&gt;+ createNewUser(event: ActionEvent)&lt;/div&gt;&lt;div&gt;+ devLogin(event: ActionEvent)&lt;/div&gt;&lt;div&gt;+ mp(event: ActionEvent)&lt;br&gt;&lt;/div&gt;" style="text;strokeColor=none;fillColor=none;align=left;verticalAlign=top;spacingLeft=4;spacingRight=4;overflow=hidden;rotatable=0;points=[[0,0.5],[1,0.5]];portConstraint=eastwest;whiteSpace=wrap;html=1;" vertex="1" parent="WPHEw-IVUdy1KVsQDdNB-22">
          <mxGeometry y="308" width="240" height="122" as="geometry" />
        </mxCell>
        <mxCell id="kKN7BocD8W2woPgvCXma-13" style="edgeStyle=orthogonalEdgeStyle;rounded=0;orthogonalLoop=1;jettySize=auto;html=1;entryX=1;entryY=0.75;entryDx=0;entryDy=0;" edge="1" parent="WPHEw-IVUdy1KVsQDdNB-1" source="WPHEw-IVUdy1KVsQDdNB-26" target="WPHEw-IVUdy1KVsQDdNB-2">
          <mxGeometry relative="1" as="geometry" />
        </mxCell>
        <mxCell id="WPHEw-IVUdy1KVsQDdNB-26" value="SettingsController" style="swimlane;fontStyle=1;align=center;verticalAlign=top;childLayout=stackLayout;horizontal=1;startSize=26;horizontalStack=0;resizeParent=1;resizeParentMax=0;resizeLast=0;collapsible=1;marginBottom=0;whiteSpace=wrap;html=1;" vertex="1" parent="WPHEw-IVUdy1KVsQDdNB-1">
          <mxGeometry x="760" y="400" width="240" height="450" as="geometry">
            <mxRectangle x="90" y="1020" width="150" height="30" as="alternateBounds" />
          </mxGeometry>
        </mxCell>
        <mxCell id="WPHEw-IVUdy1KVsQDdNB-27" value="- loggedInUserName: String&lt;br&gt;- dbID: String&lt;br&gt;- savedFontName: String&lt;br&gt;- savedFontSize: String&lt;br&gt;- avatarImage: File&lt;br&gt;- savedAvatar: byte[] &lt;br&gt;- imageBytes: byte[] &lt;br&gt;- connection: Connection&lt;br&gt;- somethingChanged: boolean&lt;br&gt;- savedBackgroundColor: Color&lt;br&gt;- BackButton: Button&lt;br&gt;- SaveSettings: Button&lt;br&gt;- AnchorPane: AnchorPane&lt;br&gt;- FontStyle: ComboBox&amp;lt;String&amp;gt; &lt;br&gt;- FontSize: ComboBox&amp;lt;String&amp;gt; &lt;br&gt;- WindowSize: ComboBox&amp;lt;String&amp;gt; &lt;br&gt;- cP: ColorPicker&lt;br&gt;- ChangeAvatarButton: Button" style="text;strokeColor=none;fillColor=none;align=left;verticalAlign=top;spacingLeft=4;spacingRight=4;overflow=hidden;rotatable=0;points=[[0,0.5],[1,0.5]];portConstraint=eastwest;whiteSpace=wrap;html=1;" vertex="1" parent="WPHEw-IVUdy1KVsQDdNB-26">
          <mxGeometry y="26" width="240" height="274" as="geometry" />
        </mxCell>
        <mxCell id="WPHEw-IVUdy1KVsQDdNB-28" value="" style="line;strokeWidth=1;fillColor=none;align=left;verticalAlign=middle;spacingTop=-1;spacingLeft=3;spacingRight=3;rotatable=0;labelPosition=right;points=[];portConstraint=eastwest;strokeColor=inherit;" vertex="1" parent="WPHEw-IVUdy1KVsQDdNB-26">
          <mxGeometry y="300" width="240" height="8" as="geometry" />
        </mxCell>
        <mxCell id="WPHEw-IVUdy1KVsQDdNB-29" value="&lt;div&gt;+ SettingsController()&lt;/div&gt;&lt;div&gt;+ initialize()&lt;/div&gt;&lt;div&gt;+ setUserName(userName: String)&lt;/div&gt;&lt;div&gt;+ colorChange(e: ActionEvent)&lt;/div&gt;&lt;div&gt;+ saveSettings(event: ActionEvent)&lt;/div&gt;&lt;div&gt;+ handleBackButton(event: ActionEvent)&lt;/div&gt;&lt;div&gt;+ FontChange(event: ActionEvent)&lt;/div&gt;&lt;div&gt;+ FontSizeChange(event: ActionEvent)&lt;/div&gt;&lt;div&gt;+ AvatarChange(event: ActionEvent)&lt;/div&gt;&lt;div&gt;&lt;br&gt;&lt;/div&gt;" style="text;strokeColor=none;fillColor=none;align=left;verticalAlign=top;spacingLeft=4;spacingRight=4;overflow=hidden;rotatable=0;points=[[0,0.5],[1,0.5]];portConstraint=eastwest;whiteSpace=wrap;html=1;" vertex="1" parent="WPHEw-IVUdy1KVsQDdNB-26">
          <mxGeometry y="308" width="240" height="142" as="geometry" />
        </mxCell>
        <mxCell id="WPHEw-IVUdy1KVsQDdNB-34" value="GameModel" style="swimlane;fontStyle=1;align=center;verticalAlign=top;childLayout=stackLayout;horizontal=1;startSize=26;horizontalStack=0;resizeParent=1;resizeParentMax=0;resizeLast=0;collapsible=1;marginBottom=0;whiteSpace=wrap;html=1;" vertex="1" parent="WPHEw-IVUdy1KVsQDdNB-1">
          <mxGeometry x="30" y="1959" width="240" height="180" as="geometry">
            <mxRectangle x="40" y="1640" width="150" height="30" as="alternateBounds" />
          </mxGeometry>
        </mxCell>
        <mxCell id="WPHEw-IVUdy1KVsQDdNB-35" value="&lt;div&gt;+ score: IntegerProperty &lt;br&gt;&lt;/div&gt;&lt;div&gt;- hitSound: Media&lt;br&gt;- shootSound: Media&lt;br&gt;&lt;/div&gt;" style="text;strokeColor=none;fillColor=none;align=left;verticalAlign=top;spacingLeft=4;spacingRight=4;overflow=hidden;rotatable=0;points=[[0,0.5],[1,0.5]];portConstraint=eastwest;whiteSpace=wrap;html=1;" vertex="1" parent="WPHEw-IVUdy1KVsQDdNB-34">
          <mxGeometry y="26" width="240" height="54" as="geometry" />
        </mxCell>
        <mxCell id="WPHEw-IVUdy1KVsQDdNB-36" value="" style="line;strokeWidth=1;fillColor=none;align=left;verticalAlign=middle;spacingTop=-1;spacingLeft=3;spacingRight=3;rotatable=0;labelPosition=right;points=[];portConstraint=eastwest;strokeColor=inherit;" vertex="1" parent="WPHEw-IVUdy1KVsQDdNB-34">
          <mxGeometry y="80" width="240" height="8" as="geometry" />
        </mxCell>
        <mxCell id="WPHEw-IVUdy1KVsQDdNB-37" value="&lt;div&gt;+ getshootSound()&lt;/div&gt;&lt;div&gt;+ getHitSound()&lt;/div&gt;&lt;div&gt;+ getScore()&lt;/div&gt;&lt;div&gt;+ setScore(score: int)&lt;/div&gt;&lt;div&gt;+ scoreProperty()&lt;br&gt;&lt;/div&gt;" style="text;strokeColor=none;fillColor=none;align=left;verticalAlign=top;spacingLeft=4;spacingRight=4;overflow=hidden;rotatable=0;points=[[0,0.5],[1,0.5]];portConstraint=eastwest;whiteSpace=wrap;html=1;" vertex="1" parent="WPHEw-IVUdy1KVsQDdNB-34">
          <mxGeometry y="88" width="240" height="92" as="geometry" />
        </mxCell>
        <mxCell id="kKN7BocD8W2woPgvCXma-12" style="edgeStyle=orthogonalEdgeStyle;rounded=0;orthogonalLoop=1;jettySize=auto;html=1;entryX=1.029;entryY=0.557;entryDx=0;entryDy=0;entryPerimeter=0;" edge="1" parent="WPHEw-IVUdy1KVsQDdNB-1" source="WPHEw-IVUdy1KVsQDdNB-38" target="WPHEw-IVUdy1KVsQDdNB-45">
          <mxGeometry relative="1" as="geometry">
            <Array as="points">
              <mxPoint x="860" y="1490" />
              <mxPoint x="990" y="1490" />
              <mxPoint x="990" y="1362" />
            </Array>
          </mxGeometry>
        </mxCell>
        <mxCell id="WPHEw-IVUdy1KVsQDdNB-38" value="HealthBar" style="swimlane;fontStyle=1;align=center;verticalAlign=top;childLayout=stackLayout;horizontal=1;startSize=26;horizontalStack=0;resizeParent=1;resizeParentMax=0;resizeLast=0;collapsible=1;marginBottom=0;whiteSpace=wrap;html=1;" vertex="1" parent="WPHEw-IVUdy1KVsQDdNB-1">
          <mxGeometry x="730" y="1530" width="260" height="140" as="geometry">
            <mxRectangle x="1000" y="1130" width="150" height="30" as="alternateBounds" />
          </mxGeometry>
        </mxCell>
        <mxCell id="WPHEw-IVUdy1KVsQDdNB-39" value="&lt;div&gt;- heartsPane: Pane&lt;/div&gt;&lt;div&gt;- heartsPane2: Pane&lt;/div&gt;&lt;div&gt;- player: Player&lt;/div&gt;&lt;div&gt;- view: GameView&lt;br&gt;&lt;/div&gt;" style="text;strokeColor=none;fillColor=none;align=left;verticalAlign=top;spacingLeft=4;spacingRight=4;overflow=hidden;rotatable=0;points=[[0,0.5],[1,0.5]];portConstraint=eastwest;whiteSpace=wrap;html=1;" vertex="1" parent="WPHEw-IVUdy1KVsQDdNB-38">
          <mxGeometry y="26" width="260" height="64" as="geometry" />
        </mxCell>
        <mxCell id="WPHEw-IVUdy1KVsQDdNB-40" value="" style="line;strokeWidth=1;fillColor=none;align=left;verticalAlign=middle;spacingTop=-1;spacingLeft=3;spacingRight=3;rotatable=0;labelPosition=right;points=[];portConstraint=eastwest;strokeColor=inherit;" vertex="1" parent="WPHEw-IVUdy1KVsQDdNB-38">
          <mxGeometry y="90" width="260" height="8" as="geometry" />
        </mxCell>
        <mxCell id="WPHEw-IVUdy1KVsQDdNB-41" value="+ propertyChange(evt:PropertyChangeEvent)" style="text;strokeColor=none;fillColor=none;align=left;verticalAlign=top;spacingLeft=4;spacingRight=4;overflow=hidden;rotatable=0;points=[[0,0.5],[1,0.5]];portConstraint=eastwest;whiteSpace=wrap;html=1;" vertex="1" parent="WPHEw-IVUdy1KVsQDdNB-38">
          <mxGeometry y="98" width="260" height="42" as="geometry" />
        </mxCell>
        <mxCell id="kKN7BocD8W2woPgvCXma-11" style="edgeStyle=orthogonalEdgeStyle;rounded=0;orthogonalLoop=1;jettySize=auto;html=1;entryX=1;entryY=1;entryDx=0;entryDy=0;entryPerimeter=0;" edge="1" parent="WPHEw-IVUdy1KVsQDdNB-1" source="WPHEw-IVUdy1KVsQDdNB-42" target="WPHEw-IVUdy1KVsQDdNB-57">
          <mxGeometry relative="1" as="geometry" />
        </mxCell>
        <mxCell id="WPHEw-IVUdy1KVsQDdNB-42" value="Player" style="swimlane;fontStyle=1;align=center;verticalAlign=top;childLayout=stackLayout;horizontal=1;startSize=26;horizontalStack=0;resizeParent=1;resizeParentMax=0;resizeLast=0;collapsible=1;marginBottom=0;whiteSpace=wrap;html=1;" vertex="1" parent="WPHEw-IVUdy1KVsQDdNB-1">
          <mxGeometry x="730" y="1130" width="240" height="330" as="geometry">
            <mxRectangle x="800" y="930" width="150" height="30" as="alternateBounds" />
          </mxGeometry>
        </mxCell>
        <mxCell id="WPHEw-IVUdy1KVsQDdNB-43" value="&lt;div&gt;- velocity: double&lt;/div&gt;&lt;div&gt;- health: int&lt;/div&gt;&lt;div&gt;&lt;div&gt;- health2: int&lt;/div&gt;&lt;/div&gt;&lt;div&gt;- propertyChangeSupport: PropertyChangeSupport&lt;/div&gt;" style="text;strokeColor=none;fillColor=none;align=left;verticalAlign=top;spacingLeft=4;spacingRight=4;overflow=hidden;rotatable=0;points=[[0,0.5],[1,0.5]];portConstraint=eastwest;whiteSpace=wrap;html=1;" vertex="1" parent="WPHEw-IVUdy1KVsQDdNB-42">
          <mxGeometry y="26" width="240" height="74" as="geometry" />
        </mxCell>
        <mxCell id="WPHEw-IVUdy1KVsQDdNB-44" value="" style="line;strokeWidth=1;fillColor=none;align=left;verticalAlign=middle;spacingTop=-1;spacingLeft=3;spacingRight=3;rotatable=0;labelPosition=right;points=[];portConstraint=eastwest;strokeColor=inherit;" vertex="1" parent="WPHEw-IVUdy1KVsQDdNB-42">
          <mxGeometry y="100" width="240" height="8" as="geometry" />
        </mxCell>
        <mxCell id="WPHEw-IVUdy1KVsQDdNB-45" value="&lt;div&gt;+ getHealth()&lt;/div&gt;&lt;div&gt;+ setHealth(newHealth: int)&lt;/div&gt;&lt;div&gt;&lt;div&gt;+ getHealth2()&lt;/div&gt;+ setHealth2(newHealth: int)&lt;/div&gt;&lt;div&gt;+ getVelocityX()&lt;/div&gt;&lt;div&gt;+ getVelocityY()&lt;/div&gt;&lt;div&gt;+ setVelocityX(velocityX: double)&lt;/div&gt;&lt;div&gt;+ setVelocityY(velocityY: double)&lt;/div&gt;&lt;div&gt;+ updateHealth(healthChange: int, player: Player, playerSelector: String)&lt;/div&gt;&lt;div&gt;+ addPropertyChangeListener(listener: PropertyChangeListener)&lt;/div&gt;&lt;div&gt;+ removePropertyChangeListener(listener:&lt;/div&gt;&lt;div&gt;PropertyChangeListener)&lt;/div&gt;&lt;div&gt;+ propertyChange(evt: PropertyChangeEvent)&lt;br&gt;&lt;/div&gt;" style="text;strokeColor=none;fillColor=none;align=left;verticalAlign=top;spacingLeft=4;spacingRight=4;overflow=hidden;rotatable=0;points=[[0,0.5],[1,0.5]];portConstraint=eastwest;whiteSpace=wrap;html=1;" vertex="1" parent="WPHEw-IVUdy1KVsQDdNB-42">
          <mxGeometry y="108" width="240" height="222" as="geometry" />
        </mxCell>
        <mxCell id="WPHEw-IVUdy1KVsQDdNB-46" value="Sound" style="swimlane;fontStyle=1;align=center;verticalAlign=top;childLayout=stackLayout;horizontal=1;startSize=26;horizontalStack=0;resizeParent=1;resizeParentMax=0;resizeLast=0;collapsible=1;marginBottom=0;whiteSpace=wrap;html=1;" vertex="1" parent="WPHEw-IVUdy1KVsQDdNB-1">
          <mxGeometry x="30" y="2219" width="240" height="100" as="geometry">
            <mxRectangle x="360" y="1640" width="150" height="30" as="alternateBounds" />
          </mxGeometry>
        </mxCell>
        <mxCell id="WPHEw-IVUdy1KVsQDdNB-47" value="clip: Clip" style="text;strokeColor=none;fillColor=none;align=left;verticalAlign=top;spacingLeft=4;spacingRight=4;overflow=hidden;rotatable=0;points=[[0,0.5],[1,0.5]];portConstraint=eastwest;whiteSpace=wrap;html=1;" vertex="1" parent="WPHEw-IVUdy1KVsQDdNB-46">
          <mxGeometry y="26" width="240" height="34" as="geometry" />
        </mxCell>
        <mxCell id="WPHEw-IVUdy1KVsQDdNB-48" value="" style="line;strokeWidth=1;fillColor=none;align=left;verticalAlign=middle;spacingTop=-1;spacingLeft=3;spacingRight=3;rotatable=0;labelPosition=right;points=[];portConstraint=eastwest;strokeColor=inherit;" vertex="1" parent="WPHEw-IVUdy1KVsQDdNB-46">
          <mxGeometry y="60" width="240" height="8" as="geometry" />
        </mxCell>
        <mxCell id="WPHEw-IVUdy1KVsQDdNB-49" value="&lt;div&gt;+ play()&lt;/div&gt;" style="text;strokeColor=none;fillColor=none;align=left;verticalAlign=top;spacingLeft=4;spacingRight=4;overflow=hidden;rotatable=0;points=[[0,0.5],[1,0.5]];portConstraint=eastwest;whiteSpace=wrap;html=1;" vertex="1" parent="WPHEw-IVUdy1KVsQDdNB-46">
          <mxGeometry y="68" width="240" height="32" as="geometry" />
        </mxCell>
        <mxCell id="WPHEw-IVUdy1KVsQDdNB-50" value="SpecialEnemy" style="swimlane;fontStyle=1;align=center;verticalAlign=top;childLayout=stackLayout;horizontal=1;startSize=26;horizontalStack=0;resizeParent=1;resizeParentMax=0;resizeLast=0;collapsible=1;marginBottom=0;whiteSpace=wrap;html=1;" vertex="1" parent="WPHEw-IVUdy1KVsQDdNB-1">
          <mxGeometry x="440" y="1840" width="240" height="240" as="geometry">
            <mxRectangle x="440" y="1480" width="150" height="30" as="alternateBounds" />
          </mxGeometry>
        </mxCell>
        <mxCell id="WPHEw-IVUdy1KVsQDdNB-51" value="- image: Image&lt;br&gt;- xVelocity: int&lt;br&gt;- yVelocity: double&lt;br&gt;- rotate: int" style="text;strokeColor=none;fillColor=none;align=left;verticalAlign=top;spacingLeft=4;spacingRight=4;overflow=hidden;rotatable=0;points=[[0,0.5],[1,0.5]];portConstraint=eastwest;whiteSpace=wrap;html=1;" vertex="1" parent="WPHEw-IVUdy1KVsQDdNB-50">
          <mxGeometry y="26" width="240" height="74" as="geometry" />
        </mxCell>
        <mxCell id="WPHEw-IVUdy1KVsQDdNB-52" value="" style="line;strokeWidth=1;fillColor=none;align=left;verticalAlign=middle;spacingTop=-1;spacingLeft=3;spacingRight=3;rotatable=0;labelPosition=right;points=[];portConstraint=eastwest;strokeColor=inherit;" vertex="1" parent="WPHEw-IVUdy1KVsQDdNB-50">
          <mxGeometry y="100" width="240" height="8" as="geometry" />
        </mxCell>
        <mxCell id="WPHEw-IVUdy1KVsQDdNB-53" value="&lt;div&gt;+ getImage()&lt;/div&gt;&lt;div&gt;+ getxVelocity()&lt;/div&gt;&lt;div&gt;+ setxVelocity(xVelocity: int)&lt;/div&gt;&lt;div&gt;+ getyVelocity()&lt;/div&gt;&lt;div&gt;+ setyVelocity(yVelocity: double)&lt;/div&gt;&lt;div&gt;+ getRotate()&lt;/div&gt;&lt;div&gt;+ setRotate(rotate: int)&lt;/div&gt;&lt;div&gt;+ getBounds()&lt;br&gt;&lt;/div&gt;" style="text;strokeColor=none;fillColor=none;align=left;verticalAlign=top;spacingLeft=4;spacingRight=4;overflow=hidden;rotatable=0;points=[[0,0.5],[1,0.5]];portConstraint=eastwest;whiteSpace=wrap;html=1;" vertex="1" parent="WPHEw-IVUdy1KVsQDdNB-50">
          <mxGeometry y="108" width="240" height="132" as="geometry" />
        </mxCell>
        <mxCell id="WPHEw-IVUdy1KVsQDdNB-54" value="GameView" style="swimlane;fontStyle=1;align=center;verticalAlign=top;childLayout=stackLayout;horizontal=1;startSize=26;horizontalStack=0;resizeParent=1;resizeParentMax=0;resizeLast=0;collapsible=1;marginBottom=0;whiteSpace=wrap;html=1;" vertex="1" parent="WPHEw-IVUdy1KVsQDdNB-1">
          <mxGeometry x="440" y="501" width="240" height="820" as="geometry">
            <mxRectangle x="440" y="355" width="160" height="30" as="alternateBounds" />
          </mxGeometry>
        </mxCell>
        <mxCell id="WPHEw-IVUdy1KVsQDdNB-55" value="- enemyImage: Image&lt;br&gt;- specialEnemies: List&amp;lt;SpecialEnemy&amp;gt; &lt;br&gt;- enemies: List&amp;lt;Enemy&amp;gt;&lt;br&gt;- lastSpecialEnemyTime: long&lt;br&gt;- scene: Scene&lt;br&gt;+ player: Player&lt;br&gt;- model: GameModel&lt;br&gt;+ bulletGroup: Group&amp;nbsp; &lt;br&gt;- root: Pane&lt;br&gt;- gc: GraphicsContext&lt;br&gt;- animationTimer: AnimationTimer&lt;br&gt;- lastEnemyTime: long&lt;br&gt;- enemyCreationInterval: long&lt;br&gt;- startTime: long&lt;br&gt;- isGameOver: boolean&lt;br&gt;- hitSound: MediaPlayer&lt;br&gt;&lt;div&gt;- scoreLabel: Label&lt;/div&gt;&lt;div&gt;- startingHealth: int&lt;br&gt;- hearts: ArrayList&amp;lt;ImageView&amp;gt;&lt;/div&gt;&lt;div&gt;- hearts2: ArrayList&amp;lt;ImageView&amp;gt;&lt;/div&gt;&lt;div&gt;- heartsPane: Pane&lt;/div&gt;&lt;div&gt;- heartsPane2: Pane&lt;/div&gt;&lt;div&gt;- healthBar: HealthBar&lt;/div&gt;&lt;div&gt;- PlayerName1: String&lt;/div&gt;&lt;div&gt;- PlayerName2: String&lt;br&gt;&lt;/div&gt;" style="text;strokeColor=none;fillColor=none;align=left;verticalAlign=top;spacingLeft=4;spacingRight=4;overflow=hidden;rotatable=0;points=[[0,0.5],[1,0.5]];portConstraint=eastwest;whiteSpace=wrap;html=1;" vertex="1" parent="WPHEw-IVUdy1KVsQDdNB-54">
          <mxGeometry y="26" width="240" height="394" as="geometry" />
        </mxCell>
        <mxCell id="WPHEw-IVUdy1KVsQDdNB-56" value="" style="line;strokeWidth=1;fillColor=none;align=left;verticalAlign=middle;spacingTop=-1;spacingLeft=3;spacingRight=3;rotatable=0;labelPosition=right;points=[];portConstraint=eastwest;strokeColor=inherit;" vertex="1" parent="WPHEw-IVUdy1KVsQDdNB-54">
          <mxGeometry y="420" width="240" height="8" as="geometry" />
        </mxCell>
        <mxCell id="WPHEw-IVUdy1KVsQDdNB-57" value="&lt;div&gt;+ handle (now: long)&lt;/div&gt;&lt;div&gt;+ addEnemy(currentTime: long)&lt;/div&gt;&lt;div&gt;+ addNormalEnemy(xPos: int, yPos: int, width: int, height: int)&lt;/div&gt;&lt;div&gt;+ addSpecialEnemy(xPos: int, width: int, height: int)&lt;/div&gt;&lt;div&gt;+ update()&lt;/div&gt;&lt;div&gt;+ updateSecondHealthBar(health: int)&lt;br&gt;&lt;/div&gt;&lt;div&gt;+ render()&lt;/div&gt;&lt;div&gt;+ stop()&lt;/div&gt;&lt;div&gt;+ getBoundsInParent(imageView: ImageView)&lt;/div&gt;&lt;div&gt;+ showAlert(title: String, message: String)&lt;/div&gt;&lt;div&gt;+ showAlertWon(title: String, message: String&lt;/div&gt;&lt;div&gt;+ setEnemies(enemies: List&amp;lt;Enemy&amp;gt;)&lt;/div&gt;&lt;div&gt;+ setSpecialEnemies(specialEnemies: List&amp;lt;SpecialEnemy&amp;gt;)&lt;/div&gt;&lt;div&gt;+ getEnemies()&lt;/div&gt;&lt;div&gt;+ getSpecialEnemies()&lt;/div&gt;&lt;div&gt;+ getBulletGroup()&lt;/div&gt;&lt;div&gt;+ getScene()&lt;/div&gt;&lt;div&gt;+ getPlayer1()&lt;/div&gt;&lt;div&gt;+ getPlayer2()&lt;br&gt;&lt;/div&gt;&lt;div&gt;+ setScoreLabel(score: int)&lt;/div&gt;&lt;div&gt;+ setModel(model: GameModel )&lt;br&gt;&lt;/div&gt;" style="text;strokeColor=none;fillColor=none;align=left;verticalAlign=top;spacingLeft=4;spacingRight=4;overflow=hidden;rotatable=0;points=[[0,0.5],[1,0.5]];portConstraint=eastwest;whiteSpace=wrap;html=1;" vertex="1" parent="WPHEw-IVUdy1KVsQDdNB-54">
          <mxGeometry y="428" width="240" height="392" as="geometry" />
        </mxCell>
        <mxCell id="WPHEw-IVUdy1KVsQDdNB-58" value="Background" style="swimlane;fontStyle=1;align=center;verticalAlign=top;childLayout=stackLayout;horizontal=1;startSize=26;horizontalStack=0;resizeParent=1;resizeParentMax=0;resizeLast=0;collapsible=1;marginBottom=0;whiteSpace=wrap;html=1;" vertex="1" parent="WPHEw-IVUdy1KVsQDdNB-1">
          <mxGeometry x="760" y="880" width="240" height="180" as="geometry">
            <mxRectangle x="800" y="880" width="150" height="30" as="alternateBounds" />
          </mxGeometry>
        </mxCell>
        <mxCell id="WPHEw-IVUdy1KVsQDdNB-59" value="backgroundImage: Image&lt;br&gt;xPosition: double&lt;br&gt;yPosition: double&lt;br&gt;speed: double" style="text;strokeColor=none;fillColor=none;align=left;verticalAlign=top;spacingLeft=4;spacingRight=4;overflow=hidden;rotatable=0;points=[[0,0.5],[1,0.5]];portConstraint=eastwest;whiteSpace=wrap;html=1;" vertex="1" parent="WPHEw-IVUdy1KVsQDdNB-58">
          <mxGeometry y="26" width="240" height="74" as="geometry" />
        </mxCell>
        <mxCell id="WPHEw-IVUdy1KVsQDdNB-60" value="" style="line;strokeWidth=1;fillColor=none;align=left;verticalAlign=middle;spacingTop=-1;spacingLeft=3;spacingRight=3;rotatable=0;labelPosition=right;points=[];portConstraint=eastwest;strokeColor=inherit;" vertex="1" parent="WPHEw-IVUdy1KVsQDdNB-58">
          <mxGeometry y="100" width="240" height="8" as="geometry" />
        </mxCell>
        <mxCell id="WPHEw-IVUdy1KVsQDdNB-61" value="&lt;div&gt;+ move(elapsedTime: double)&lt;/div&gt;&lt;div&gt;+ render(gc: GraphicsContext, canvasWidth: double, canvasHeight: double)&lt;br&gt;&lt;/div&gt;" style="text;strokeColor=none;fillColor=none;align=left;verticalAlign=top;spacingLeft=4;spacingRight=4;overflow=hidden;rotatable=0;points=[[0,0.5],[1,0.5]];portConstraint=eastwest;whiteSpace=wrap;html=1;" vertex="1" parent="WPHEw-IVUdy1KVsQDdNB-58">
          <mxGeometry y="108" width="240" height="72" as="geometry" />
        </mxCell>
        <mxCell id="WPHEw-IVUdy1KVsQDdNB-68" value="" style="endArrow=block;endSize=16;endFill=0;html=1;rounded=0;exitX=0.5;exitY=0;exitDx=0;exitDy=0;" edge="1" parent="WPHEw-IVUdy1KVsQDdNB-1" source="WPHEw-IVUdy1KVsQDdNB-50">
          <mxGeometry x="-0.25" width="160" relative="1" as="geometry">
            <mxPoint x="561.32" y="1514" as="sourcePoint" />
            <mxPoint x="560" y="1600" as="targetPoint" />
            <mxPoint as="offset" />
          </mxGeometry>
        </mxCell>
        <mxCell id="kKN7BocD8W2woPgvCXma-10" style="edgeStyle=orthogonalEdgeStyle;rounded=0;orthogonalLoop=1;jettySize=auto;html=1;entryX=0.5;entryY=1;entryDx=0;entryDy=0;" edge="1" parent="WPHEw-IVUdy1KVsQDdNB-1" source="WPHEw-IVUdy1KVsQDdNB-77" target="WPHEw-IVUdy1KVsQDdNB-54">
          <mxGeometry relative="1" as="geometry" />
        </mxCell>
        <mxCell id="WPHEw-IVUdy1KVsQDdNB-77" value="Enemy" style="swimlane;fontStyle=1;align=center;verticalAlign=top;childLayout=stackLayout;horizontal=1;startSize=26;horizontalStack=0;resizeParent=1;resizeParentMax=0;resizeLast=0;collapsible=1;marginBottom=0;whiteSpace=wrap;html=1;" vertex="1" parent="WPHEw-IVUdy1KVsQDdNB-1">
          <mxGeometry x="440" y="1436" width="240" height="310" as="geometry">
            <mxRectangle x="460" y="1120" width="150" height="30" as="alternateBounds" />
          </mxGeometry>
        </mxCell>
        <mxCell id="WPHEw-IVUdy1KVsQDdNB-78" value="- health: int&lt;br&gt;- speed: int&lt;br&gt;- xPos: int&lt;br&gt;- yPos: int&lt;br&gt;- width: int&lt;br&gt;- height: int" style="text;strokeColor=none;fillColor=none;align=left;verticalAlign=top;spacingLeft=4;spacingRight=4;overflow=hidden;rotatable=0;points=[[0,0.5],[1,0.5]];portConstraint=eastwest;whiteSpace=wrap;html=1;" vertex="1" parent="WPHEw-IVUdy1KVsQDdNB-77">
          <mxGeometry y="26" width="240" height="94" as="geometry" />
        </mxCell>
        <mxCell id="WPHEw-IVUdy1KVsQDdNB-79" value="" style="line;strokeWidth=1;fillColor=none;align=left;verticalAlign=middle;spacingTop=-1;spacingLeft=3;spacingRight=3;rotatable=0;labelPosition=right;points=[];portConstraint=eastwest;strokeColor=inherit;" vertex="1" parent="WPHEw-IVUdy1KVsQDdNB-77">
          <mxGeometry y="120" width="240" height="8" as="geometry" />
        </mxCell>
        <mxCell id="WPHEw-IVUdy1KVsQDdNB-80" value="&lt;div&gt;+ getHealth()&lt;/div&gt;&lt;div&gt;+ getSpeed()&lt;/div&gt;&lt;div&gt;+ getXPos()&lt;/div&gt;&lt;div&gt;+ getYPos()&lt;/div&gt;&lt;div&gt;+ getWidth()&lt;/div&gt;&lt;div&gt;+ getHeight()&lt;/div&gt;&lt;div&gt;+ setYPos(yPos: int)&lt;/div&gt;&lt;div&gt;+ move()&lt;/div&gt;&lt;div&gt;+ takeDamage(damage: int)&lt;/div&gt;&lt;div&gt;+ getBounds()&lt;/div&gt;&lt;div&gt;+ hit()&lt;/div&gt;&lt;div&gt;+ isDestroyed()&lt;br&gt;&lt;/div&gt;" style="text;strokeColor=none;fillColor=none;align=left;verticalAlign=top;spacingLeft=4;spacingRight=4;overflow=hidden;rotatable=0;points=[[0,0.5],[1,0.5]];portConstraint=eastwest;whiteSpace=wrap;html=1;" vertex="1" parent="WPHEw-IVUdy1KVsQDdNB-77">
          <mxGeometry y="128" width="240" height="182" as="geometry" />
        </mxCell>
        <mxCell id="kKN7BocD8W2woPgvCXma-6" style="edgeStyle=orthogonalEdgeStyle;rounded=0;orthogonalLoop=1;jettySize=auto;html=1;entryX=0.475;entryY=1.16;entryDx=0;entryDy=0;entryPerimeter=0;" edge="1" parent="WPHEw-IVUdy1KVsQDdNB-1" target="WPHEw-IVUdy1KVsQDdNB-5">
          <mxGeometry relative="1" as="geometry">
            <mxPoint x="180" y="760" as="sourcePoint" />
            <Array as="points">
              <mxPoint x="290" y="760" />
              <mxPoint x="290" y="480" />
              <mxPoint x="720" y="480" />
              <mxPoint x="720" y="220" />
              <mxPoint x="716" y="220" />
            </Array>
          </mxGeometry>
        </mxCell>
        <mxCell id="kKN7BocD8W2woPgvCXma-7" style="edgeStyle=orthogonalEdgeStyle;rounded=0;orthogonalLoop=1;jettySize=auto;html=1;entryX=-0.017;entryY=0.691;entryDx=0;entryDy=0;entryPerimeter=0;" edge="1" parent="WPHEw-IVUdy1KVsQDdNB-1" source="WPHEw-IVUdy1KVsQDdNB-7" target="WPHEw-IVUdy1KVsQDdNB-55">
          <mxGeometry relative="1" as="geometry">
            <Array as="points">
              <mxPoint x="320" y="1331" />
              <mxPoint x="320" y="830" />
              <mxPoint x="390" y="830" />
              <mxPoint x="390" y="799" />
            </Array>
          </mxGeometry>
        </mxCell>
        <mxCell id="kKN7BocD8W2woPgvCXma-8" style="edgeStyle=orthogonalEdgeStyle;rounded=0;orthogonalLoop=1;jettySize=auto;html=1;" edge="1" parent="WPHEw-IVUdy1KVsQDdNB-1" source="WPHEw-IVUdy1KVsQDdNB-9" target="WPHEw-IVUdy1KVsQDdNB-34">
          <mxGeometry relative="1" as="geometry" />
        </mxCell>
        <mxCell id="kKN7BocD8W2woPgvCXma-9" style="edgeStyle=orthogonalEdgeStyle;rounded=0;orthogonalLoop=1;jettySize=auto;html=1;entryX=-0.012;entryY=0.82;entryDx=0;entryDy=0;entryPerimeter=0;" edge="1" parent="WPHEw-IVUdy1KVsQDdNB-1" source="WPHEw-IVUdy1KVsQDdNB-35" target="WPHEw-IVUdy1KVsQDdNB-57">
          <mxGeometry relative="1" as="geometry" />
        </mxCell>
        <mxCell id="kKN7BocD8W2woPgvCXma-14" style="edgeStyle=orthogonalEdgeStyle;rounded=0;orthogonalLoop=1;jettySize=auto;html=1;entryX=1;entryY=0;entryDx=0;entryDy=0;" edge="1" parent="WPHEw-IVUdy1KVsQDdNB-1" source="WPHEw-IVUdy1KVsQDdNB-23" target="WPHEw-IVUdy1KVsQDdNB-2">
          <mxGeometry relative="1" as="geometry">
            <Array as="points">
              <mxPoint x="1100" y="213" />
              <mxPoint x="1100" y="30" />
              <mxPoint x="800" y="30" />
            </Array>
          </mxGeometry>
        </mxCell>
        <mxCell id="kKN7BocD8W2woPgvCXma-15" style="edgeStyle=orthogonalEdgeStyle;rounded=0;orthogonalLoop=1;jettySize=auto;html=1;entryX=1;entryY=0.5;entryDx=0;entryDy=0;" edge="1" parent="WPHEw-IVUdy1KVsQDdNB-1" source="WPHEw-IVUdy1KVsQDdNB-19" target="WPHEw-IVUdy1KVsQDdNB-3">
          <mxGeometry relative="1" as="geometry">
            <Array as="points">
              <mxPoint x="1350" y="653" />
              <mxPoint x="1350" y="260" />
              <mxPoint x="1070" y="260" />
              <mxPoint x="1070" y="79" />
            </Array>
          </mxGeometry>
        </mxCell>
        <mxCell id="dntGvW02GTJOawOFwCRO-0" value="User" style="swimlane;fontStyle=1;align=center;verticalAlign=top;childLayout=stackLayout;horizontal=1;startSize=26;horizontalStack=0;resizeParent=1;resizeParentMax=0;resizeLast=0;collapsible=1;marginBottom=0;whiteSpace=wrap;html=1;" vertex="1" parent="WPHEw-IVUdy1KVsQDdNB-1">
          <mxGeometry x="1040" y="320" width="240" height="240" as="geometry">
            <mxRectangle x="90" y="1020" width="150" height="30" as="alternateBounds" />
          </mxGeometry>
        </mxCell>
        <mxCell id="dntGvW02GTJOawOFwCRO-1" value="&lt;div&gt;- id: int&lt;/div&gt;&lt;div&gt;- username: String&lt;/div&gt;&lt;div&gt;- password: String&lt;/div&gt;&lt;div&gt;- highscore: int&lt;br&gt;&lt;/div&gt;" style="text;strokeColor=none;fillColor=none;align=left;verticalAlign=top;spacingLeft=4;spacingRight=4;overflow=hidden;rotatable=0;points=[[0,0.5],[1,0.5]];portConstraint=eastwest;whiteSpace=wrap;html=1;" vertex="1" parent="dntGvW02GTJOawOFwCRO-0">
          <mxGeometry y="26" width="240" height="74" as="geometry" />
        </mxCell>
        <mxCell id="dntGvW02GTJOawOFwCRO-2" value="" style="line;strokeWidth=1;fillColor=none;align=left;verticalAlign=middle;spacingTop=-1;spacingLeft=3;spacingRight=3;rotatable=0;labelPosition=right;points=[];portConstraint=eastwest;strokeColor=inherit;" vertex="1" parent="dntGvW02GTJOawOFwCRO-0">
          <mxGeometry y="100" width="240" height="8" as="geometry" />
        </mxCell>
        <mxCell id="dntGvW02GTJOawOFwCRO-3" value="&lt;div&gt;+ getId()&lt;/div&gt;&lt;div&gt;+ setId(id: int)&lt;/div&gt;&lt;div&gt;+ getUsername()&lt;/div&gt;&lt;div&gt;+ setUsername(username: String)&lt;/div&gt;&lt;div&gt;+ getPassword()&lt;/div&gt;&lt;div&gt;+ setPassword(password: String)&lt;/div&gt;&lt;div&gt;+ getHighscore()&lt;/div&gt;&lt;div&gt;+ setHighscore(highscore: int)&lt;br&gt;&lt;/div&gt;" style="text;strokeColor=none;fillColor=none;align=left;verticalAlign=top;spacingLeft=4;spacingRight=4;overflow=hidden;rotatable=0;points=[[0,0.5],[1,0.5]];portConstraint=eastwest;whiteSpace=wrap;html=1;" vertex="1" parent="dntGvW02GTJOawOFwCRO-0">
          <mxGeometry y="108" width="240" height="132" as="geometry" />
        </mxCell>
        <mxCell id="dntGvW02GTJOawOFwCRO-26" style="edgeStyle=orthogonalEdgeStyle;rounded=0;orthogonalLoop=1;jettySize=auto;html=1;entryX=0.504;entryY=1.053;entryDx=0;entryDy=0;entryPerimeter=0;" edge="1" parent="WPHEw-IVUdy1KVsQDdNB-1" source="dntGvW02GTJOawOFwCRO-9" target="dntGvW02GTJOawOFwCRO-3">
          <mxGeometry relative="1" as="geometry">
            <Array as="points">
              <mxPoint x="1160" y="580" />
              <mxPoint x="1161" y="567" />
            </Array>
          </mxGeometry>
        </mxCell>
        <mxCell id="dntGvW02GTJOawOFwCRO-43" style="edgeStyle=orthogonalEdgeStyle;rounded=0;orthogonalLoop=1;jettySize=auto;html=1;entryX=1;entryY=0.5;entryDx=0;entryDy=0;" edge="1" parent="WPHEw-IVUdy1KVsQDdNB-1" source="dntGvW02GTJOawOFwCRO-9" target="dntGvW02GTJOawOFwCRO-39">
          <mxGeometry relative="1" as="geometry">
            <Array as="points">
              <mxPoint x="1010" y="670" />
              <mxPoint x="1010" y="218" />
            </Array>
          </mxGeometry>
        </mxCell>
        <mxCell id="dntGvW02GTJOawOFwCRO-9" value="&lt;p style=&quot;margin:0px;margin-top:4px;text-align:center;&quot;&gt;&lt;i&gt;&amp;lt;&amp;lt;Interface&amp;gt;&amp;gt;&lt;/i&gt;&lt;b&gt;&lt;br&gt;&lt;/b&gt;&lt;/p&gt;&lt;p style=&quot;margin:0px;margin-top:4px;text-align:center;&quot;&gt;&lt;b&gt;UserDAO&lt;/b&gt;&lt;br&gt;&lt;/p&gt;&lt;hr size=&quot;1&quot;&gt;&lt;p style=&quot;margin:0px;margin-left:4px;&quot;&gt;+ getUserByName: User&lt;br&gt;+ getUserByID: User&lt;br&gt;&lt;/p&gt;&lt;hr size=&quot;1&quot;&gt;&lt;p style=&quot;margin:0px;margin-left:4px;&quot;&gt;+ createUser(user: User)&lt;/p&gt;&lt;p style=&quot;margin:0px;margin-left:4px;&quot;&gt;+ updateUser(user: User)&lt;br&gt;&lt;/p&gt;" style="verticalAlign=top;align=left;overflow=fill;fontSize=12;fontFamily=Helvetica;html=1;whiteSpace=wrap;" vertex="1" parent="WPHEw-IVUdy1KVsQDdNB-1">
          <mxGeometry x="1040" y="600" width="240" height="140" as="geometry" />
        </mxCell>
        <mxCell id="dntGvW02GTJOawOFwCRO-10" value="UserDAOImpl" style="swimlane;fontStyle=1;align=center;verticalAlign=top;childLayout=stackLayout;horizontal=1;startSize=26;horizontalStack=0;resizeParent=1;resizeParentMax=0;resizeLast=0;collapsible=1;marginBottom=0;whiteSpace=wrap;html=1;" vertex="1" parent="WPHEw-IVUdy1KVsQDdNB-1">
          <mxGeometry x="1120" y="790" width="240" height="200" as="geometry">
            <mxRectangle x="90" y="1020" width="150" height="30" as="alternateBounds" />
          </mxGeometry>
        </mxCell>
        <mxCell id="dntGvW02GTJOawOFwCRO-11" value="&lt;div&gt;- con: Connection&lt;br&gt;&lt;/div&gt;" style="text;strokeColor=none;fillColor=none;align=left;verticalAlign=top;spacingLeft=4;spacingRight=4;overflow=hidden;rotatable=0;points=[[0,0.5],[1,0.5]];portConstraint=eastwest;whiteSpace=wrap;html=1;" vertex="1" parent="dntGvW02GTJOawOFwCRO-10">
          <mxGeometry y="26" width="240" height="34" as="geometry" />
        </mxCell>
        <mxCell id="dntGvW02GTJOawOFwCRO-12" value="" style="line;strokeWidth=1;fillColor=none;align=left;verticalAlign=middle;spacingTop=-1;spacingLeft=3;spacingRight=3;rotatable=0;labelPosition=right;points=[];portConstraint=eastwest;strokeColor=inherit;" vertex="1" parent="dntGvW02GTJOawOFwCRO-10">
          <mxGeometry y="60" width="240" height="8" as="geometry" />
        </mxCell>
        <mxCell id="dntGvW02GTJOawOFwCRO-13" value="&lt;div&gt;+ getUserByName(name: String)&lt;/div&gt;&lt;div&gt;+ getUserByID(dbid: String)&lt;/div&gt;&lt;div&gt;+ createUser(user: User)&lt;/div&gt;&lt;div&gt;+ &lt;br&gt;&lt;/div&gt;" style="text;strokeColor=none;fillColor=none;align=left;verticalAlign=top;spacingLeft=4;spacingRight=4;overflow=hidden;rotatable=0;points=[[0,0.5],[1,0.5]];portConstraint=eastwest;whiteSpace=wrap;html=1;" vertex="1" parent="dntGvW02GTJOawOFwCRO-10">
          <mxGeometry y="68" width="240" height="132" as="geometry" />
        </mxCell>
        <mxCell id="dntGvW02GTJOawOFwCRO-14" style="edgeStyle=orthogonalEdgeStyle;rounded=0;orthogonalLoop=1;jettySize=auto;html=1;entryX=0.5;entryY=1;entryDx=0;entryDy=0;exitX=0.343;exitY=-0.002;exitDx=0;exitDy=0;exitPerimeter=0;" edge="1" parent="WPHEw-IVUdy1KVsQDdNB-1" source="dntGvW02GTJOawOFwCRO-10">
          <mxGeometry relative="1" as="geometry">
            <mxPoint x="1200" y="765" as="sourcePoint" />
            <mxPoint x="1200" y="740" as="targetPoint" />
          </mxGeometry>
        </mxCell>
        <mxCell id="dntGvW02GTJOawOFwCRO-15" value="UserSettings" style="swimlane;fontStyle=1;align=center;verticalAlign=top;childLayout=stackLayout;horizontal=1;startSize=26;horizontalStack=0;resizeParent=1;resizeParentMax=0;resizeLast=0;collapsible=1;marginBottom=0;whiteSpace=wrap;html=1;" vertex="1" parent="WPHEw-IVUdy1KVsQDdNB-1">
          <mxGeometry x="1120" y="1020" width="240" height="420" as="geometry">
            <mxRectangle x="90" y="1020" width="150" height="30" as="alternateBounds" />
          </mxGeometry>
        </mxCell>
        <mxCell id="dntGvW02GTJOawOFwCRO-16" value="&lt;div&gt;- dbid:int&lt;/div&gt;&lt;div&gt;- userId: int&lt;/div&gt;&lt;div&gt;- fontSize: String&lt;/div&gt;&lt;div&gt;- fontType: String&lt;br&gt;- backgroundColor: String&lt;br&gt;- resolution: String&lt;br&gt;- avatarImage: File&lt;br&gt;&amp;nbsp;- savedAvatar: byte[] &lt;/div&gt;" style="text;strokeColor=none;fillColor=none;align=left;verticalAlign=top;spacingLeft=4;spacingRight=4;overflow=hidden;rotatable=0;points=[[0,0.5],[1,0.5]];portConstraint=eastwest;whiteSpace=wrap;html=1;" vertex="1" parent="dntGvW02GTJOawOFwCRO-15">
          <mxGeometry y="26" width="240" height="124" as="geometry" />
        </mxCell>
        <mxCell id="dntGvW02GTJOawOFwCRO-17" value="" style="line;strokeWidth=1;fillColor=none;align=left;verticalAlign=middle;spacingTop=-1;spacingLeft=3;spacingRight=3;rotatable=0;labelPosition=right;points=[];portConstraint=eastwest;strokeColor=inherit;" vertex="1" parent="dntGvW02GTJOawOFwCRO-15">
          <mxGeometry y="150" width="240" height="8" as="geometry" />
        </mxCell>
        <mxCell id="dntGvW02GTJOawOFwCRO-18" value="&lt;div&gt;+ getId()&lt;/div&gt;&lt;div&gt;+ setId(id: int)&lt;/div&gt;&lt;div&gt;+ getUserId()&lt;/div&gt;&lt;div&gt;+ setUserId(userId: int)&lt;/div&gt;&lt;div&gt;+ getFontSize()&lt;/div&gt;&lt;div&gt;+ setFontSize(fontSize: String)&lt;/div&gt;&lt;div&gt;+ getFontType()&lt;/div&gt;&lt;div&gt;+ setFontType(fontType: String)&lt;/div&gt;&lt;div&gt;+ getBackgroundColor()&lt;/div&gt;&lt;div&gt;+ setBackgroundColor(backgroundColor: String)&lt;/div&gt;&lt;div&gt;+ getResolution()&lt;/div&gt;&lt;div&gt;+ setResolution(resolution: String)&lt;/div&gt;&lt;div&gt;+ getAvatarImage()&lt;/div&gt;&lt;div&gt;+ setAvatarImage(avatarImage: File)&lt;/div&gt;&lt;div&gt;+ getSavedAvatar()&lt;/div&gt;&lt;div&gt;+ setSavedAvatar(savedAvatar: byte[] )&lt;br&gt;&lt;/div&gt;" style="text;strokeColor=none;fillColor=none;align=left;verticalAlign=top;spacingLeft=4;spacingRight=4;overflow=hidden;rotatable=0;points=[[0,0.5],[1,0.5]];portConstraint=eastwest;whiteSpace=wrap;html=1;" vertex="1" parent="dntGvW02GTJOawOFwCRO-15">
          <mxGeometry y="158" width="240" height="262" as="geometry" />
        </mxCell>
        <mxCell id="dntGvW02GTJOawOFwCRO-25" style="edgeStyle=orthogonalEdgeStyle;rounded=0;orthogonalLoop=1;jettySize=auto;html=1;entryX=1.004;entryY=0.211;entryDx=0;entryDy=0;entryPerimeter=0;" edge="1" parent="WPHEw-IVUdy1KVsQDdNB-1" source="dntGvW02GTJOawOFwCRO-19" target="dntGvW02GTJOawOFwCRO-23">
          <mxGeometry relative="1" as="geometry" />
        </mxCell>
        <mxCell id="dntGvW02GTJOawOFwCRO-19" value="&lt;p style=&quot;margin:0px;margin-top:4px;text-align:center;&quot;&gt;&lt;i&gt;&amp;lt;&amp;lt;Interface&amp;gt;&amp;gt;&lt;/i&gt;&lt;b&gt;&lt;br&gt;&lt;/b&gt;&lt;/p&gt;&lt;p style=&quot;margin:0px;margin-top:4px;text-align:center;&quot;&gt;&lt;b&gt;UserSettingsDAO&lt;/b&gt;&lt;br&gt;&lt;/p&gt;&lt;hr size=&quot;1&quot;&gt;&lt;p style=&quot;margin:0px;margin-left:4px;&quot;&gt;&lt;br&gt;&lt;/p&gt;&lt;hr size=&quot;1&quot;&gt;&lt;p style=&quot;margin:0px;margin-left:4px;&quot;&gt;+ createUserSettings(userSettings: UserSettings )&lt;/p&gt;&lt;p style=&quot;margin:0px;margin-left:4px;&quot;&gt;+ updateUserSettings(userSettings: UserSettings)&lt;/p&gt;&lt;p style=&quot;margin:0px;margin-left:4px;&quot;&gt;+ getUserSettingsByUserId(userId: String)&lt;br&gt;&lt;/p&gt;" style="verticalAlign=top;align=left;overflow=fill;fontSize=12;fontFamily=Helvetica;html=1;whiteSpace=wrap;" vertex="1" parent="WPHEw-IVUdy1KVsQDdNB-1">
          <mxGeometry x="1410" y="1509" width="240" height="190" as="geometry" />
        </mxCell>
        <mxCell id="dntGvW02GTJOawOFwCRO-24" style="edgeStyle=orthogonalEdgeStyle;rounded=0;orthogonalLoop=1;jettySize=auto;html=1;entryX=1.015;entryY=0.06;entryDx=0;entryDy=0;entryPerimeter=0;" edge="1" parent="WPHEw-IVUdy1KVsQDdNB-1" source="dntGvW02GTJOawOFwCRO-20" target="WPHEw-IVUdy1KVsQDdNB-5">
          <mxGeometry relative="1" as="geometry">
            <Array as="points">
              <mxPoint x="1020" y="1604" />
              <mxPoint x="1020" y="103" />
            </Array>
          </mxGeometry>
        </mxCell>
        <mxCell id="dntGvW02GTJOawOFwCRO-27" style="edgeStyle=orthogonalEdgeStyle;rounded=0;orthogonalLoop=1;jettySize=auto;html=1;entryX=0.504;entryY=1.027;entryDx=0;entryDy=0;entryPerimeter=0;" edge="1" parent="WPHEw-IVUdy1KVsQDdNB-1" source="dntGvW02GTJOawOFwCRO-20" target="dntGvW02GTJOawOFwCRO-18">
          <mxGeometry relative="1" as="geometry">
            <Array as="points">
              <mxPoint x="1240" y="1477" />
              <mxPoint x="1241" y="1447" />
            </Array>
          </mxGeometry>
        </mxCell>
        <mxCell id="dntGvW02GTJOawOFwCRO-20" value="UserSettingsDAOImpl" style="swimlane;fontStyle=1;align=center;verticalAlign=top;childLayout=stackLayout;horizontal=1;startSize=26;horizontalStack=0;resizeParent=1;resizeParentMax=0;resizeLast=0;collapsible=1;marginBottom=0;whiteSpace=wrap;html=1;" vertex="1" parent="WPHEw-IVUdy1KVsQDdNB-1">
          <mxGeometry x="1120" y="1514" width="240" height="180" as="geometry">
            <mxRectangle x="90" y="1020" width="150" height="30" as="alternateBounds" />
          </mxGeometry>
        </mxCell>
        <mxCell id="dntGvW02GTJOawOFwCRO-21" value="&lt;div&gt;- dconnection: Connection&lt;br&gt;&lt;/div&gt;" style="text;strokeColor=none;fillColor=none;align=left;verticalAlign=top;spacingLeft=4;spacingRight=4;overflow=hidden;rotatable=0;points=[[0,0.5],[1,0.5]];portConstraint=eastwest;whiteSpace=wrap;html=1;" vertex="1" parent="dntGvW02GTJOawOFwCRO-20">
          <mxGeometry y="26" width="240" height="34" as="geometry" />
        </mxCell>
        <mxCell id="dntGvW02GTJOawOFwCRO-22" value="" style="line;strokeWidth=1;fillColor=none;align=left;verticalAlign=middle;spacingTop=-1;spacingLeft=3;spacingRight=3;rotatable=0;labelPosition=right;points=[];portConstraint=eastwest;strokeColor=inherit;" vertex="1" parent="dntGvW02GTJOawOFwCRO-20">
          <mxGeometry y="60" width="240" height="8" as="geometry" />
        </mxCell>
        <mxCell id="dntGvW02GTJOawOFwCRO-23" value="&lt;div&gt;+ getUserSettingsByUserId(userId: String)&lt;/div&gt;&lt;div&gt;+updateUserSettings(userSettings:&lt;/div&gt;&lt;div&gt;UserSettings)&lt;/div&gt;&lt;div&gt;+ close()&lt;/div&gt;&lt;div&gt;+ createUserSettings(userSettings:&lt;/div&gt;&lt;div&gt;UserSettings)&lt;br&gt;&lt;/div&gt;" style="text;strokeColor=none;fillColor=none;align=left;verticalAlign=top;spacingLeft=4;spacingRight=4;overflow=hidden;rotatable=0;points=[[0,0.5],[1,0.5]];portConstraint=eastwest;whiteSpace=wrap;html=1;" vertex="1" parent="dntGvW02GTJOawOFwCRO-20">
          <mxGeometry y="68" width="240" height="112" as="geometry" />
        </mxCell>
        <mxCell id="dntGvW02GTJOawOFwCRO-42" style="edgeStyle=orthogonalEdgeStyle;rounded=0;orthogonalLoop=1;jettySize=auto;html=1;entryX=0.55;entryY=0.007;entryDx=0;entryDy=0;entryPerimeter=0;" edge="1" parent="WPHEw-IVUdy1KVsQDdNB-1" source="dntGvW02GTJOawOFwCRO-28" target="dntGvW02GTJOawOFwCRO-38">
          <mxGeometry relative="1" as="geometry" />
        </mxCell>
        <mxCell id="dntGvW02GTJOawOFwCRO-28" value="Main" style="swimlane;fontStyle=1;align=center;verticalAlign=top;childLayout=stackLayout;horizontal=1;startSize=26;horizontalStack=0;resizeParent=1;resizeParentMax=0;resizeLast=0;collapsible=1;marginBottom=0;whiteSpace=wrap;html=1;" vertex="1" parent="WPHEw-IVUdy1KVsQDdNB-1">
          <mxGeometry x="40" y="40" width="170" height="70" as="geometry">
            <mxRectangle x="80" y="540" width="160" height="30" as="alternateBounds" />
          </mxGeometry>
        </mxCell>
        <mxCell id="dntGvW02GTJOawOFwCRO-30" value="" style="line;strokeWidth=1;fillColor=none;align=left;verticalAlign=middle;spacingTop=-1;spacingLeft=3;spacingRight=3;rotatable=0;labelPosition=right;points=[];portConstraint=eastwest;strokeColor=inherit;" vertex="1" parent="dntGvW02GTJOawOFwCRO-28">
          <mxGeometry y="26" width="170" height="8" as="geometry" />
        </mxCell>
        <mxCell id="dntGvW02GTJOawOFwCRO-31" value="+ start (Stage: primaryStage)" style="text;strokeColor=none;fillColor=none;align=left;verticalAlign=top;spacingLeft=4;spacingRight=4;overflow=hidden;rotatable=0;points=[[0,0.5],[1,0.5]];portConstraint=eastwest;whiteSpace=wrap;html=1;" vertex="1" parent="dntGvW02GTJOawOFwCRO-28">
          <mxGeometry y="34" width="170" height="36" as="geometry" />
        </mxCell>
        <mxCell id="dntGvW02GTJOawOFwCRO-38" value="Server" style="swimlane;fontStyle=1;align=center;verticalAlign=top;childLayout=stackLayout;horizontal=1;startSize=26;horizontalStack=0;resizeParent=1;resizeParentMax=0;resizeLast=0;collapsible=1;marginBottom=0;whiteSpace=wrap;html=1;" vertex="1" parent="WPHEw-IVUdy1KVsQDdNB-1">
          <mxGeometry x="40" y="150" width="360" height="310" as="geometry">
            <mxRectangle x="80" y="540" width="160" height="30" as="alternateBounds" />
          </mxGeometry>
        </mxCell>
        <mxCell id="dntGvW02GTJOawOFwCRO-39" value="&lt;div&gt;- Port: int&lt;/div&gt;&lt;div&gt;- userDAO: UserDAO&lt;/div&gt;&lt;div&gt;- DBURL: String&lt;/div&gt;&lt;div&gt;- DBUser: String&lt;/div&gt;&lt;div&gt;- DBPassword: String&lt;br&gt;&lt;/div&gt;" style="text;strokeColor=none;fillColor=none;align=left;verticalAlign=top;spacingLeft=4;spacingRight=4;overflow=hidden;rotatable=0;points=[[0,0.5],[1,0.5]];portConstraint=eastwest;whiteSpace=wrap;html=1;" vertex="1" parent="dntGvW02GTJOawOFwCRO-38">
          <mxGeometry y="26" width="360" height="84" as="geometry" />
        </mxCell>
        <mxCell id="dntGvW02GTJOawOFwCRO-40" value="" style="line;strokeWidth=1;fillColor=none;align=left;verticalAlign=middle;spacingTop=-1;spacingLeft=3;spacingRight=3;rotatable=0;labelPosition=right;points=[];portConstraint=eastwest;strokeColor=inherit;" vertex="1" parent="dntGvW02GTJOawOFwCRO-38">
          <mxGeometry y="110" width="360" height="8" as="geometry" />
        </mxCell>
        <mxCell id="dntGvW02GTJOawOFwCRO-41" value="&lt;div&gt;+ startServer()&lt;/div&gt;&lt;div&gt;+ handleClient (cliensocket: Socket)&lt;/div&gt;&lt;div&gt;+ handleAuthentification (clientSocket: Socket, doc: Document)&lt;/div&gt;&lt;div&gt;+ handleNewUser (clientSocket: Socket, doc: Document)&lt;/div&gt;&lt;div&gt;+ sendInvalidRequestToClient(clientSocket: Socket)&lt;/div&gt;&lt;div&gt;+ receiveXMLFromClient(clientSocket: Socket)&lt;/div&gt;&lt;div&gt;+ sendAuthenticationConfirmationToClient(clientSocket: Socket)&lt;/div&gt;&lt;div&gt;+ sendAuthenticationFailureToClient(clientSocket: Socket)&lt;/div&gt;&lt;div&gt;+ sendNewUserConfirmationToClient(clientSocket: Socket)&lt;/div&gt;&lt;div&gt;+ sendUserCreationFailureToClient(clientSocket: Socket)&lt;/div&gt;&lt;div&gt;+ callUser (user: String)&lt;/div&gt;&lt;div&gt;+ callUserSettings (user: String)&lt;br&gt;&lt;/div&gt;" style="text;strokeColor=none;fillColor=none;align=left;verticalAlign=top;spacingLeft=4;spacingRight=4;overflow=hidden;rotatable=0;points=[[0,0.5],[1,0.5]];portConstraint=eastwest;whiteSpace=wrap;html=1;" vertex="1" parent="dntGvW02GTJOawOFwCRO-38">
          <mxGeometry y="118" width="360" height="192" as="geometry" />
        </mxCell>
      </root>
    </mxGraphModel>
  </diagram>
</mxfile>
